<?xml version="1.0" standalone="no"?>
<!DOCTYPE svg PUBLIC "-//W3C//DTD SVG 1.1//EN" "http://www.w3.org/Graphics/SVG/1.1/DTD/svg11.dtd" >
<svg xmlns="http://www.w3.org/2000/svg">
<metadata></metadata>
<defs>
<font id="giffordshandregular" horiz-adv-x="1144" >
<font-face units-per-em="2048" ascent="1638" descent="-410" />
<missing-glyph horiz-adv-x="894" />
<glyph horiz-adv-x="0" />
<glyph unicode="&#xd;" horiz-adv-x="894" />
<glyph unicode=" "  horiz-adv-x="894" />
<glyph unicode="&#x09;" horiz-adv-x="894" />
<glyph unicode="&#xa0;" horiz-adv-x="894" />
<glyph unicode="!" horiz-adv-x="745" d="M272 23q10 20 20.5 39.5t16.5 17.5l19 -6l45 -2l-37 -58q-16 2 -31 6q-12 2 -33 3zM297 492q0 135 72 313q63 150 127 301q10 29 43 139q27 88 45 141q27 74 59 123q43 63 102 88q0 -61 -15 -122.5t-44 -122.5q-57 -123 -115 -246q-80 -211 -120 -315q-74 -188 -154 -299 z" />
<glyph unicode="&#x22;" horiz-adv-x="819" d="M272 1077q0 117 74 285q66 152 150 258l4 -47q0 -115 -71 -262.5t-157 -233.5zM571 1104q20 90 98.5 254t100.5 239l25 -24h24q0 -145 -59 -273q-70 -150 -189 -196z" />
<glyph unicode="#" horiz-adv-x="1816" d="M147 -2q262 43 295 51q139 37 203 121q76 98 76 295q-37 -12 -143 -57q-160 -68 -256 -68q49 78 170 129q102 37 206 76q123 55 232 344q43 121 88 241q20 -39 20 -81q0 -88 -75 -263q-35 -76 -68 -149l72 -6q102 0 166 110q170 295 210 314q0 -63 -24 -133 q-6 -14 -100 -209q37 -12 152.5 -18.5t123.5 -10.5q-188 -31 -293 -106q-135 -98 -135 -267l2 -41q66 10 246 70q150 49 305.5 99t196.5 50q-61 -12 -129 -36q-53 -18 -125 -52q-203 -86 -404 -170q-135 -63 -210 -158.5t-228 -389.5l98 415q-133 -29 -184 -135 q-20 -39 -64 -231q-14 63 -19 122.5t-5 145.5l-285 -61q-6 -2 -26.5 4t-36.5 10zM719 197l49 -4q115 0 176 88q55 77 55 196l-4 66q-115 -33 -186 -133q-59 -82 -90 -213z" />
<glyph unicode="$" horiz-adv-x="1617" d="M147 0q37 160 162 264q100 86 271 142q96 33 305 79q70 16 125 129q35 70 57 97q-53 12 -95 28.5t-102 44.5q27 78 99 136q10 8 250 137q37 20 161 219q59 96 113 125q-6 -59 -39 -141t-61 -156q51 -27 82.5 -40t44.5 -9q-133 -23 -164 -35q-92 -37 -92 -121 q0 -51 177 -106.5t177 -155.5q0 -137 -160 -197q-160 -35 -319 -69q-195 -43 -246 -135q-6 -10 -100 -359q-35 -129 -97 -196q0 139 62 333q55 164 112 328q-213 0 -397 -94q-150 -76 -326 -248zM1069 541q72 -16 139 -17q154 0 260 115q-51 35 -96 55q-59 27 -110 27 q-74 0 -125 -55q-41 -45 -68 -125z" />
<glyph unicode="%" horiz-adv-x="1243" d="M244 885q0 96 83 161.5t183 65.5q57 0 166.5 -38t163.5 -38q119 0 184.5 96.5t95.5 96.5q43 0 76 -43q10 -12 47 -82q-188 -100 -338 -250q-102 -98 -272 -352q-193 -287 -193 -383q0 -66 56 -94q-31 -51 -62 -76t-86 -45q-12 49 -12 100q0 168 139 402q203 340 219 380 q-70 -29 -137 -57q-94 -35 -143 -35q-74 0 -122 58.5t-48 132.5zM348 838q66 -31 137 -31q63 0 99 18q47 25 47 82q0 45 -21 82q-27 47 -65 47q-53 0 -119 -73q-53 -61 -78 -125zM762 141q0 84 127 191q78 66 205 137q31 -49 46 -122.5t15 -141.5q0 -92 -29 -150 q-39 -78 -122 -78q-76 0 -152 43q-90 51 -90 121zM879 152q0 -47 30.5 -76t79.5 -29q51 0 80 46.5t29 99.5q0 51 -22.5 80.5t-71.5 29.5q-53 0 -89 -48t-36 -103z" />
<glyph unicode="&#x26;" horiz-adv-x="1118" d="M172 -909q20 109 92 331q61 190 124 388t63 290q0 31 -90.5 88.5t-90.5 128.5q0 84 185 248q111 94 141 121l-248 51q37 88 160 152q104 47 211 94q68 37 125 162q76 176 151 354v25l15 -33q-6 -68 -33 -150q-74 -229 -78 -247l25 -45q23 -8 45 -12.5t51 -4.5 q-94 -31 -137 -61q-68 -47 -68 -123l4 -64q37 8 76 16.5t74 8.5l69 -4l15 -23l-9 -69q-203 0 -317 -115q-96 -96 -156 -305l86 -2q109 0 214.5 22.5t209.5 46.5l37 -18v-49q-201 -49 -401 -98q-195 -61 -293 -316q-33 -88 -113 -467q-55 -264 -139 -321zM420 332 q0 -12 9 -39t17 -49q45 41 60.5 70.5t15.5 86.5v41q-49 -37 -61 -47q-41 -37 -41 -63z" />
<glyph unicode="'" horiz-adv-x="546" d="M397 1147q12 74 66 190q61 135 71.5 180.5t19.5 78t17 42.5q33 6 56.5 10.5t23.5 24.5q0 3 -4 15q6 -31 6 -68q0 -139 -69 -274q-76 -147 -187 -199z" />
<glyph unicode="(" horiz-adv-x="495" d="M25 369q0 244 96 462t276 398h25l24 -25l25 25q-37 -86 -129 -238q-102 -168 -133 -237q-61 -139 -62 -265q0 -193 156 -321q125 -92 193 -145q-53 -25 -115 -25q-139 0 -247.5 114.5t-108.5 256.5z" />
<glyph unicode=")" horiz-adv-x="669" d="M0 -96q33 43 96.5 72.5t100.5 46.5q147 68 261.5 272.5t114.5 374.5q0 117 -52 213t-148 172l49 73q115 -82 176 -210t61 -275q0 -289 -180 -506q-193 -233 -479 -233z" />
<glyph unicode="*" horiz-adv-x="1492" d="M147 883l56 6q37 0 200 -27q76 -12 125 -12q16 0 37 1t56 7l-99 393q45 -37 86 -100.5t88 -192.5q51 41 101 121q12 18 123 246l22 -49q-16 -74 -65 -186q-41 -90 -82 -181l69 -6q86 0 203 35q266 80 336 80q47 0 90 -12l-723 -246q76 -63 150 -148l49 2l6 -32l-4 -66 q-74 0 -125 31q-4 2 -150 141q-104 -158 -178 -268q-139 -211 -166 -234q133 274 269 551q-252 31 -254 31q-150 31 -220 115z" />
<glyph unicode="+" horiz-adv-x="1218" d="M147 686q57 70 175 129q98 47 198 94q66 33 123 178.5t152 165.5q-10 -41 -18.5 -82t-8.5 -81q0 -25 7 -51.5t20 -57.5q125 35 209 51q117 23 215 23q-117 -35 -234 -68q-279 -94 -330 -229q-10 -27 -32 -152q-35 -193 -101 -239l-8 63q0 37 27 201q12 76 12 125l-6 78 q-98 -45 -204.5 -91.5t-195.5 -56.5z" />
<glyph unicode="," horiz-adv-x="620" d="M-25 -492q37 109 131 236q244 330 267 377q41 94 61 141q39 86 71 135t50 68q29 31 66 49q0 -254 -211 -565q-197 -291 -435 -441z" />
<glyph unicode="-" horiz-adv-x="1865" d="M147 565q96 41 370 95.5t567.5 97.5t402.5 43q117 0 211 -26t168 -89q-203 -18 -406 -35q-283 -25 -431 -41t-384 -47q-180 -33 -358 -63q-49 0 -85 14t-55 51z" />
<glyph unicode="." horiz-adv-x="546" d="M248 -98q33 88 55 125q45 70 107 69q25 0 56.5 -10t80.5 -39q-80 -82 -109 -102q-66 -47 -141 -47z" />
<glyph unicode="/" horiz-adv-x="1417" d="M147 -74q8 63 35 127q35 84 117 193.5t238 294.5q186 219 247 299q135 174 209 315q135 279 271 559q59 102 85.5 137t67.5 64q0 -250 -252 -664q-184 -303 -536 -739q-242 -293 -482 -586z" />
<glyph unicode="0" horiz-adv-x="1118" d="M147 195q0 246 254 540q264 305 510 305q98 0 146 -61q41 -54 41 -156q0 -319 -197 -624q-223 -344 -528 -344q-137 0 -189 110q-37 78 -37 230zM272 84q-8 -53 37 -84q37 -25 92 -25q223 0 428 304q191 281 191 512q0 59 -22.5 90.5t-79.5 31.5q-66 0 -127.5 -43 t-118.5 -84q-176 -98 -279 -303q-82 -162 -121 -399z" />
<glyph unicode="1" horiz-adv-x="595" d="M147 -197q0 88 29 185q4 12 119 291q49 115 80 282q25 143 51 289q20 96 43 147q41 90 102 109q6 -33 8.5 -47t2.5 -47q0 -225 -144.5 -617.5t-290.5 -591.5z" />
<glyph unicode="2" horiz-adv-x="1939" d="M147 145h70q29 0 57.5 1t59.5 12q152 43 358.5 311t206.5 424q0 80 -78 117q-57 27 -149 26q-84 0 -150 -30q-14 -6 -200 -148l-5 49q-10 115 101 176q92 51 223 52q129 0 227 -48q129 -61 129 -176q0 -111 -86 -256q-70 -119 -192 -256q-76 -84 -199 -204q20 -4 46 -7.5 t42 -3.5q102 0 357.5 70t522.5 141.5t404 71.5q33 0 47 -2q-195 -66 -493 -160q-422 -131 -676 -201q-362 -98 -465 -98q-143 0 -158 139z" />
<glyph unicode="3" horiz-adv-x="1267" d="M147 195l547 -105q29 -4 47 -4q115 0 216.5 77t101.5 181q0 145 -103 213q-84 55 -237 55q31 74 199.5 173.5t199.5 170.5q-84 59 -119 76q-47 23 -81 23q-27 0 -87 -31q-47 -25 -92 -49q-20 10 -43 6l-26 25q57 57 130.5 90.5t153.5 33.5q92 0 195 -61q117 -70 117 -154 q0 -57 -119 -112q-18 -8 -176 -66q18 -31 104 -127q131 -147 131 -241q0 -178 -168 -281q-145 -88 -336 -88q-158 0 -296 45q-156 51 -259 150z" />
<glyph unicode="4" horiz-adv-x="1267" d="M147 440q8 25 200 267.5t214 257.5q59 43 135 43q-143 -180 -159 -201q-90 -117 -140 -217q61 -29 122 -44.5t122 -15.5q143 0 244 136q78 125 155 252q97 137 228 137q-193 -244 -221 -287q-74 -109 -89 -174q12 -35 33 -57q33 -29 53 -48q-152 -33 -262 -153 q-70 -76 -206 -259t-250 -362q-129 -201 -154 -280l-8 80q0 92 115 274q43 70 233 334q143 201 182 293q-18 6 -39.5 8t-48.5 2t-91 -4t-69 -4q-27 0 -89 11t-85 11l-75 -49z" />
<glyph unicode="5" horiz-adv-x="2039" d="M160 63q0 18 4 39t10 43q37 -162 184 -247q131 -78 310 -78q190 0 370 92q217 111 217 281q0 168 -180 258t-180 124q0 23 16.5 62t30.5 74q25 74 51 149q37 90 348 154q113 20 226 41l26 -25l25 25l375 4q66 0 106.5 -5.5t89.5 -23.5q-264 0 -426 -18 q-258 -29 -422 -109q-209 -100 -299 -289q125 0 236 -137t111 -264q0 -242 -252 -358q-193 -88 -467 -88q-199 0 -328 53q-182 76 -182 243z" />
<glyph unicode="6" horiz-adv-x="1093" d="M143 55q0 150 106.5 382.5t254.5 402.5q168 195 315 215h27l24 -25q-238 -129 -424 -395q-199 -285 -198 -537q0 -113 53 -184q61 -82 170 -82q147 0 328 121q197 131 196 266q0 106 -110 107q-135 0 -256 -88q-164 -119 -211 -136l-70 19q129 129 227 196 q152 104 277 105q86 0 158 -47q82 -55 82 -137q0 -166 -228 -334q-215 -160 -391 -160q-152 0 -241 81t-89 230z" />
<glyph unicode="7" horiz-adv-x="1243" d="M150 -492q57 135 225 437q145 260 291 522q154 283 178 367q-68 0 -162 -23q-217 -51 -272 -51t-97.5 16.5t-64.5 57.5q497 86 995 172q-115 -82 -225 -175q-121 -102 -197 -210q-92 -131 -217 -373q-172 -330 -203 -385q-121 -211 -251 -355z" />
<glyph unicode="8" horiz-adv-x="1193" d="M145 -47q29 98 142 203q31 29 219 178q139 111 188 180q-174 27 -274 43q-188 33 -189 129q0 94 242 209q221 104 340 104q150 0 180 -141q-25 -10 -53.5 -18.5t-44.5 -5.5q-25 0 -50.5 8t-49.5 16q16 8 38.5 22.5t36.5 26.5q-45 10 -82 11q-137 0 -268 -72t-223 -184 q92 -25 230.5 -39.5t244.5 -14.5q119 0 244 125q47 47 178 223q-12 -115 -82 -204q-180 -231 -184 -248q14 -41 28.5 -83t14.5 -79q0 -172 -113 -303q-119 -139 -289 -139q-63 0 -157 16q-211 37 -267 37zM322 25q152 -47 170 -52q59 -14 102 -14q104 0 205.5 128.5 t101.5 234.5q0 41 -17.5 65.5t-58.5 24.5q-92 0 -333 -226q-86 -82 -170 -161z" />
<glyph unicode="9" horiz-adv-x="919" d="M147 612q0 143 162 283.5t312 140.5q117 0 204.5 -83.5t87.5 -198.5q0 -113 -133 -326q-227 -362 -248 -401q-135 -256 -135 -467q27 12 54.5 36.5t44.5 36.5q-27 -57 -55.5 -81.5t-92.5 -40.5q-14 61 -14 106q0 135 63 297q35 90 142 293q100 190 133 282q-47 8 -105 9 q-33 0 -96 -4.5t-96 -4.5q-100 0 -148 17q-80 27 -80 106zM225 610q109 -25 219 -24q186 0 267.5 56.5t81.5 150.5q0 72 -53.5 123t-127.5 51q-111 0 -233 -127q-104 -106 -154 -230z" />
<glyph unicode=":" horiz-adv-x="372" d="M147 74q27 27 58 53.5t65 42.5q13 -43 13 -84q0 -43 -13 -84q-35 8 -45 10q-14 4 -24 11q-12 6 -54 51zM150 465q20 86 53 150.5t94 119.5q25 -6 49 -10q31 -10 31 -33l-4 -55q-70 -31 -146 -98q-41 -37 -77 -74z" />
<glyph unicode=";" horiz-adv-x="645" d="M-123 -1006q35 98 115 211q100 129 147 191q59 80 125 213q90 182 111 221q37 66 59 96q39 51 88 74q0 -252 -211 -565q-197 -293 -434 -441zM319 393q33 92 56 131q47 78 110 78q37 0 69 -18.5t32 -53.5q0 -51 -67.5 -108t-119.5 -57q-14 0 -39.5 13t-40.5 15z" />
<glyph unicode="&#x3c;" horiz-adv-x="995" d="M176 606q0 68 156 176q57 39 117 78q16 12 235 266q96 111 236 201l73 -49q-72 -115 -196 -238q-27 -27 -230 -209q-145 -131 -221 -219q31 -27 135 -123q150 -137 240 -196q51 -31 76 -45q76 -45 114 -90q33 -37 54.5 -93.5t29.5 -111.5q-55 25 -254.5 175.5 t-373.5 295.5q-190 158 -191 182z" />
<glyph unicode="=" horiz-adv-x="894" d="M150 788q104 66 271 103t310 37q61 0 88 -3.5t76 -15.5q-201 -37 -399 -73q-121 -31 -156 -37q-90 -18 -160 -19zM172 440q109 0 270 31q355 68 453 68q-70 -35 -193.5 -59.5t-181.5 -37.5q-123 -35 -244 -67q-66 0 -104 65z" />
<glyph unicode="&#x3e;" horiz-adv-x="968" d="M147 170q147 145 213 211q174 174 275 297q137 166 137 227q0 86 -228.5 189.5t-228.5 160.5q0 18 7.5 35t23.5 35q41 -55 135 -98q260 -119 264 -121q86 -76 175 -150l6 -12q16 -12 26 -20l17 -17l2 -16q4 -25 -21 -45q-88 -72 -329 -320q-127 -129 -201 -191.5 t-127 -96.5q-72 -45 -146 -68z" />
<glyph unicode="?" horiz-adv-x="1069" d="M264 14q0 72 62 95q35 12 125 12h45q-27 -76 -86 -115q-41 -27 -140 -53zM272 1106q61 211 246 299q145 70 397 70q86 0 124 -26t38 -69q0 -84 -172 -266q-162 -166 -321 -330q-174 -197 -174 -309l-11 -16l-53 -19q-27 53 -27 121q0 174 238 414q180 176 363 352 q-35 8 -66 10t-74 2q-133 0 -331 -159q-92 -74 -177 -74z" />
<glyph unicode="@" horiz-adv-x="1318" d="M145 356q0 270 203 521q217 266 483 266q219 0 347 -144q118 -135 118 -352q0 -76 -90 -196.5t-90 -190.5l2 -41q68 37 88.5 43t85.5 6q-16 -98 -80.5 -147t-167.5 -49q-47 0 -83 4q-131 14 -142 14q-49 0 -144 -19.5t-138 -19.5q-164 0 -269 70q-123 82 -123 235z M272 367q0 -88 80 -168t170 -80q41 0 133.5 40t130.5 70l9 64q-119 16 -238 35q-115 33 -115 184q0 125 116 242.5t243 117.5q90 0 143 -65.5t53 -155.5q0 -63 -26.5 -148t-50.5 -163q111 51 190 135q94 101 94 205q0 174 -96 262t-279 88q-252 0 -411 -211 q-145 -193 -146 -452zM537 518q0 -47 30.5 -79.5t77.5 -32.5q88 0 176 94t88 180q0 47 -32.5 77.5t-81.5 30.5q-88 0 -173 -91t-85 -179z" />
<glyph unicode="A" horiz-adv-x="1417" d="M150 514q172 51 258 78q156 49 229 127q47 51 162 217q94 141 191 284.5t124 165.5q43 35 78 35q10 0 34.5 -2t30.5 -2q31 0 107 43q41 23 61 23q29 0 45.5 -4t22.5 -4q-23 -121 -115 -279q-213 -362 -235 -459q37 -10 74.5 -18t76.5 -8q-190 -82 -239 -117 q-121 -86 -121 -223q0 -111 61 -232q20 -39 62 -98l-37 -41q-78 53 -117 111q-45 68 -45 155q0 70 20.5 165t41.5 183q-221 -27 -318 -102q-35 -29 -121 -158q-70 -104 -184 -161q0 68 27 122q6 12 122 174zM743 686l50 -4q184 0 323 211q125 190 125 385 q-117 -57 -280 -262q-143 -178 -218 -330z" />
<glyph unicode="B" horiz-adv-x="1294" d="M141 477q0 328 262 668q272 354 592 403l133 21q7 1 13 1q32 0 53 -24q25 -30 25 -71q0 -88 -183 -265q-109 -100 -141 -131q156 -63 184 -80q142 -78 142 -260q0 -231 -293 -477q-284 -239 -518 -239h-2q-80 0 -120 46t-40 126q8 27 10 36l21 -16q-8 41 -78 98 q-59 49 -60 164zM219 469l4 -55q152 262 203 370q121 253 121 394q-139 -158 -225 -330q-102 -203 -103 -379zM301 193q0 -121 131 -121q215 0 458 246.5t243 461.5q0 176 -183 176q-43 0 -107.5 -10t-97.5 -14l-2 35q0 76 76 170q76 82 154 163q96 102 121 173q-18 2 -35 5 t-39 3q-127 0 -215 -105q-63 -74 -186 -325.5t-216 -491.5q-102 -268 -102 -366z" />
<glyph unicode="C" horiz-adv-x="1343" d="M154 135q0 59 24 127q16 45 55 119q127 236 232 375q135 180 295 293q180 127 407 180q51 -39 105 -78q71 -59 71 -96q0 -59 -47 -82q-31 -14 -102 -15q0 70 -16 107q-25 55 -86 55q-133 0 -342 -182q-188 -164 -342 -393.5t-154 -362.5q0 -45 27.5 -66.5t74.5 -21.5 q109 0 281 72t338 145q199 86 317 105q-279 -172 -299 -185q-195 -115 -327 -163q-180 -68 -344 -68q-78 0 -123 30.5t-45 104.5z" />
<glyph unicode="D" horiz-adv-x="1267" d="M141 141q0 47 71 62.5t159 14.5h26q-82 -8 -110.5 -22t-65.5 -75q78 -41 143.5 -57.5t157.5 -16.5q0 131 107 328q98 166 198 334q109 188 109 288q0 80 -77 131.5t-163 51.5q-23 0 -65.5 -15.5t-61.5 -17.5q-25 2 -47 31q45 45 97.5 72.5t125.5 52.5l25 -25h25l24 -25 h27l47 -51q8 1 16 1q112 0 238 -238q121 -230 121 -365q0 -315 -293 -475q-233 -127 -576 -127q-94 0 -161 27q-96 37 -97 116zM547 70q35 -8 80 -9q207 0 370.5 184.5t163.5 391.5q0 184 -141 295q-51 -125 -148 -291q-20 -37 -167 -283q-109 -180 -158 -288z" />
<glyph unicode="E" horiz-adv-x="1492" d="M147 541q86 8 130.5 11t78.5 9q111 18 283 238q147 188 207 329q33 -10 52.5 -14t41.5 -4q27 0 451 80q206 39 325 39q-225 -55 -449.5 -108.5t-351.5 -139.5q-164 -111 -294 -342q29 -6 56.5 -10t55.5 -4q74 0 288 44q205 42 221 42h1q-92 -35 -190.5 -70t-182.5 -53 q-119 -27 -235 -51q-248 -72 -248 -269q0 -109 98 -164q84 -47 203 -47q176 0 363 158q123 104 194 141q-18 -125 -229 -250q-195 -116 -332 -116h-2q-135 0 -268 67q-162 82 -162 203q0 51 35 131q16 37 35 76q-98 20 -175 74z" />
<glyph unicode="F" horiz-adv-x="1521" d="M147 -47q8 25 256 338q90 115 91 211q0 8 45 57q115 127 120 137q29 41 48 78q10 20 38 84q88 203 320 295q158 63 467 92q359 35 457 58q-104 -131 -427 -148.5t-419 -50.5q-260 -92 -373 -416q88 -20 186 -20q113 0 267 20q356 47 444 47l25 25q-41 -74 -414 -119 q-127 -14 -254 -29q-193 -27 -348 -147q-88 -70 -251 -252t-278 -260z" />
<glyph unicode="G" horiz-adv-x="1218" d="M164 451q0 262 244 528q252 274 520 274q27 0 41 -2q8 -10 61 -45q39 -27 39 -59q0 -29 -25 -64q-16 -23 -49 -51q0 72 -26 113q-33 49 -103 49q-182 0 -393 -270q-203 -260 -203 -449q0 -123 69 -207t191 -84q129 0 210 89t81 219q-80 -25 -121 -37q-76 -23 -125 -23 h-28q-12 2 -51 10q10 45 30.5 78t49 46.5t62.5 17.5t69 4h41q55 0 223 69q80 33 133 33l41 -4q-66 -156 -293 -428q-344 -412 -375 -455q-186 -254 -186 -403l6 -62l274 148q-125 -104 -129 -107q-93 -71 -140 -71h-1q-35 0 -59.5 26.5t-24.5 61.5q0 88 135 319 q68 115 197 308q-195 47 -283 135q-102 102 -102 293z" />
<glyph unicode="H" horiz-adv-x="1294" d="M170 45q0 123 109 289q6 8 192 252q115 213 186 336q135 231 263 231q-39 -96 -111 -202.5t-139 -205.5q-84 -123 -123 -204q117 -35 235 -35q209 0 322 168q72 156 145 311q82 170 215 170h29q-59 -82 -213 -377q-193 -371 -254 -475q-141 -246 -223 -295q0 84 51 185 q117 231 117 296q-78 -27 -294 -47t-292 -80q-115 -88 -115 -315l62 90q39 51 86 70l28 -12l-249 -269q-27 53 -27 119z" />
<glyph unicode="I" horiz-adv-x="1243" d="M147 2q98 57 105 61q33 27 45 58l-25 24q47 174 318 502q256 309 430 434q-80 31 -94 35q-55 18 -99 23l-30 39q137 0 338 39q286 55 333 61q-47 -63 -186 -88t-164 -60v-26l27 -25v-24l-27 24q-53 -90 -182 -207q-109 -94 -215 -186q-74 -68 -158 -188 q-72 -102 -141 -205q-25 -33 -49 -64q-33 -45 -33 -71q0 -41 38 -64.5t83 -23.5q43 0 119.5 12t89.5 14q-70 -59 -170.5 -85.5t-210.5 -26.5q-70 0 -142 18z" />
<glyph unicode="J" horiz-adv-x="1343" d="M170 47q0 27 16 53q10 14 37 45q25 -49 62 -80.5t88 -31.5q117 0 299 221q160 193 296 457t136 374q0 43 -10 95q-86 -20 -179 -43q-154 -37 -159 -37l-60 4q37 33 299 117q227 74 497.5 144.5t322.5 70.5q18 0 36.5 -5.5t38.5 -9.5l49 -45q-166 -33 -331 -65 q-195 -51 -287 -154.5t-272 -445.5q-195 -369 -306 -512q-190 -246 -383 -246q-68 0 -116 16q-74 25 -74 78z" />
<glyph unicode="K" horiz-adv-x="1617" d="M145 0q4 29 77 206t147 351q53 127 108 254q35 82 74 129q49 61 119 90l-125 -391q260 281 324.5 331t373.5 210l25 -25l26 -2q-49 -68 -231 -174q-223 -129 -291 -188q-143 -123 -143 -267q0 -88 211 -209q168 -96 424 -196q124 -49 329 -119q-33 -6 -64.5 -10t-62.5 -4 q-158 0 -331 80q-61 29 -297 163q-182 104 -308 138q-104 -33 -143 -160q-55 -176 -80 -209q-14 -4 -26 -10q-12 -4 -25 -11q-20 0 -52 8.5t-59 14.5z" />
<glyph unicode="L" horiz-adv-x="1443" d="M158 98q0 12 137 252q113 195 264 453q125 211 174 291q35 53 70 90q45 47 92 67q0 -154 -127 -360q-31 -51 -260 -365q-162 -223 -209 -356q57 -23 119.5 -33t128.5 -10q88 0 215 16q289 37 358 37q84 0 154.5 -13t142.5 -46q-41 -8 -110.5 -12.5t-120.5 -4.5h-119 q-51 0 -97 -1t-102 -7q-287 -37 -571 -73q-74 0 -106.5 19t-32.5 56z" />
<glyph unicode="M" horiz-adv-x="1816" d="M172 -23q4 35 147 312q129 252 277.5 515t175.5 275q43 -207 55 -252q96 -356 242 -356q104 0 262 221l258 406q132 206 196 206q4 0 7 -1l25 -25q27 27 55.5 53.5t66.5 44.5h50q-174 -309 -347 -618q-201 -367 -323 -635q-158 -346 -250 -664q0 213 135 545 q37 88 252 543q137 289 137 387q-88 -92 -174 -182q-119 -129 -174 -222q-78 -127 -78 -235q2 -18 2 -27q-33 8 -54 12.5t-40 4.5q-35 0 -74 -27q-49 -35 -94 -102q8 35 34 76.5t54 60.5l2 33q0 8 -86 143q-109 170 -217 340q-47 -96 -139 -268q-127 -236 -209 -361 q-121 -184 -174 -203z" />
<glyph unicode="N" horiz-adv-x="1566" d="M147 -72q18 109 168 338q133 197 270.5 404t137.5 284q0 31 -8 64q-14 45 -19 61q49 16 88 36t160 87q-14 -96 -22.5 -165.5t-8.5 -137.5q0 -117 56 -334q25 -100 51 -198q94 147 246 438q160 307 243 442q150 244 308 400q-35 -147 -224 -478q-164 -276 -327 -553 q-170 -291 -170 -360q0 -76 49 -135l-84 6q-8 2 -23.5 -5t-27.5 -13q-25 -27 -49.5 -89.5t-65.5 -91.5q2 16 33 152q23 102 22 149q0 92 -45 292t-84 315q-109 -96 -225 -299q-98 -170 -195 -340q-121 -186 -254 -269z" />
<glyph unicode="O" horiz-adv-x="1343" d="M164 201q0 164 159.5 413.5t374.5 432.5q232 198 402 198h2q115 0 170 -94q45 -78 45 -201q0 -311 -246 -563q-203 -209 -534 -346q-59 -25 -108.5 -40t-96.5 -15q-88 0 -128 60t-40 155zM248 182q0 -114 104 -114h2q70 0 150 32q55 23 139 74q203 125 275 178 q158 117 233 228q96 141 96 309l-6 69q-66 -72 -80 -84q-45 -43 -94 -65q10 39 41 80q12 16 61 67q-35 10 -62.5 27.5t-37.5 24.5q43 74 72 145q-27 8 -62 8q-145 0 -350 -186q-190 -172 -335.5 -408.5t-145.5 -384.5z" />
<glyph unicode="P" horiz-adv-x="1267" d="M98 -96q180 231 285 379q150 211 262 403q127 219 209 426q41 106 72 160q55 96 118 127q0 -102 -51 -219q-53 -102 -104 -205q-59 -121 -70 -215l27 -25l24 -6q152 0 366 216t214 370q0 121 -94 193.5t-221 72.5q-195 0 -369 -70q-150 -59 -313 -184q-121 -92 -281 -248 v-24q53 229 344 415q274 176 526 177q176 0 314 -82q162 -96 162 -262q0 -162 -231.5 -395.5t-383.5 -233.5q-8 0 -34.5 12t-32.5 14q-29 43 -41 86q-131 -229 -187 -315q-145 -231 -260 -369q-152 -182 -250 -198z" />
<glyph unicode="Q" horiz-adv-x="1294" d="M160 326q0 117 223 403q209 266 338 352q51 33 188.5 65t210.5 32q76 0 122 -48t46 -124q0 -180 -149 -428q-55 -92 -271 -383q-88 -119 -105.5 -316.5t-29.5 -382.5q-29 -211 -137 -332q45 201 72.5 402t27.5 387q0 100 -268 172t-268 201zM276 365q0 -82 121 -148 q106 -57 197 -57q113 0 153.5 254t147.5 299q-16 -98 -23 -148q-14 -96 -14 -149v-41.5t10 -79.5q156 188 189 237q100 152 100 277q0 59 -45 139q-59 102 -68 133l-188 -26q-70 -10 -213 -156q-129 -129 -248 -299t-119 -235z" />
<glyph unicode="R" horiz-adv-x="1193" d="M172 72q0 61 127 278q119 205 262 400q152 207 209 233q0 -80 -63 -190q-31 -53 -62 -107l39 -4q137 0 323.5 170t186.5 301q0 55 -33 81t-90 26q-231 0 -422 -156q-203 -166 -203 -391q0 250 74 356.5t309 204.5q82 35 142 53q82 25 149 25q78 0 121 -36t43 -112 q0 -164 -131 -309q-53 -57 -246 -211q-133 -104 -133 -162q0 -41 37 -123q29 -61 59 -123q43 -100 59.5 -256.5t16.5 -312.5q0 -45 12.5 -80t42.5 -57q10 -6 70 -21q33 -8 74 -16q-53 -18 -74.5 -23.5t-42.5 -5.5q-127 0 -180 328q-74 453 -78 463q-33 74 -115 98.5 t-159 46.5q-33 -33 -154 -198q-98 -135 -170 -170z" />
<glyph unicode="S" horiz-adv-x="1169" d="M150 25q319 74 401 110q229 106 229 314q0 131 -172 194q-123 45 -286 45q55 188 260.5 327.5t412.5 139.5q68 0 109 -25t41 -88q0 -176 -125 -307q-80 -76 -158 -151q-12 -25 -12 -64q0 -25 5 -65.5t5 -48.5q0 -162 -194 -302q-182 -131 -355 -131q-33 0 -77 3.5 t-58 7.5zM469 809q150 -80 182 -100q94 -57 168 -121q88 88 156 182q94 131 94 211q0 55 -44 76.5t-107 21.5q-143 0 -302 -131q-39 -33 -147 -139z" />
<glyph unicode="T" horiz-adv-x="1255" d="M147 958q39 68 338 144q254 63 579 110.5t472 47.5q113 0 209 -23t172 -82q-68 14 -163 20.5t-173 6.5l-262 -2q-72 0 -130.5 -38t-98.5 -104q-98 -158 -252 -379q-217 -313 -365 -505q-199 -258 -274 -299q14 92 198 354q41 59 367 493q217 291 280 404 q-137 0 -282.5 -22.5t-306 -57.5t-308.5 -68z" />
<glyph unicode="U" d="M150 401q0 197 75 347q92 182 271 210q-78 -152 -156 -301q-100 -207 -100 -307q0 -102 59 -198q68 -111 164 -111q121 0 272 172q137 156 235.5 363.5t98.5 330.5q0 23 -38 98.5t-38 108.5q0 29 18.5 35t57.5 6q64 -131 64 -268q0 -250 -220 -570q-238 -348 -475 -348 q-154 0 -229 148q-59 115 -59 284z" />
<glyph unicode="V" horiz-adv-x="1069" d="M182 897q0 80 12.5 131t53.5 100q16 -37 23.5 -75.5t7.5 -89.5q0 -31 -4.5 -108t-4.5 -81q0 -104 14.5 -224t61.5 -331q248 307 445 625q211 340 354 680q0 -133 -42 -262t-120 -256q-66 -104 -201 -314.5t-192 -304.5q-98 -162 -182 -321q-37 -74 -111 -89 q-68 193 -91.5 421.5t-23.5 498.5z" />
<glyph unicode="W" horiz-adv-x="1243" d="M145 74q0 109 96.5 364.5t223.5 476.5q139 244 231 289l4 -45q1 -5 1 -11q0 -79 -105 -251q-195 -322 -213 -356q-119 -227 -119 -389q0 -43 8 -82q170 352 287 528q125 186 236 186q0 -104 -103.5 -294.5t-103.5 -294.5q0 -41 8 -74q147 82 309 354q127 227 256 455 q141 225 256 225q-6 -25 -162 -283q-176 -295 -292 -479q-160 -254 -185 -280q-45 -45 -86 -74q-55 -37 -106 -37q-53 0 -92 47q-29 35 -50 98q-61 -80 -120 -159q-53 -57 -86 -58q-39 0 -66 50.5t-27 93.5z" />
<glyph unicode="X" horiz-adv-x="1617" d="M20 -74q63 72 287 224q352 240 383 262q201 147 228 221q12 35 17 68.5t5 78.5q0 31 -4 108t-4 83q0 74 17.5 125t70.5 84q16 -74 24.5 -223.5t24.5 -221.5q117 39 260 150q119 92 238 186q145 102 274 133l-4 -6q12 -10 16 -18q11 -13 13 -25q-369 -233 -566 -381 q-206 -155 -206 -249q0 -52 24 -122q55 -156 56 -198q0 -20 -3 -31l-4 -29q-55 51 -112 172q-2 4 -84 197q-14 -10 -281 -195q-236 -164 -362 -243q-199 -125 -279 -150q-2 4 -8 4q-18 -2 -21 -4z" />
<glyph unicode="Y" d="M-29 -385q0 158 203 424q14 18 379 444q205 240 205 328q0 51 -119 225q-111 162 -168 215q-1 7 -1 13q0 26 13 49q47 14 88 14q31 -115 142 -285q53 -80 106 -159q76 74 176 211q127 170 168 219q104 121 205 184q6 -18 15.5 -44t9.5 -28q0 -111 -326 -477 q-614 -692 -618 -698q-340 -418 -363 -629q-49 -45 -109 -61z" />
<glyph unicode="Z" horiz-adv-x="1792" d="M154 -49q0 47 51 102q25 27 92 78q160 117 369 285q180 147 360 297q199 162 367 293q-57 12 -293 17t-328 81q68 16 160 22.5t178 6.5q162 0 292 -11.5t265 -42.5q-20 -41 -256 -205q-350 -244 -465 -331q-279 -211 -375 -349q106 -23 240 -22q92 0 304 11.5t276 10.5 q117 0 178 -12q110 -23 147 -86q-100 0 -305 6.5t-307 6.5q-203 0 -333 -10.5t-273 -51.5q-37 -10 -168 -104q-66 -47 -111 -60l-45 21q-6 14 -10 22q-10 23 -10 25z" />
<glyph unicode="[" horiz-adv-x="745" d="M168 41q0 150 44 333t89 372.5t45 334.5q92 0 158.5 16.5t165.5 57.5l75 -51q-27 -33 -167 -90q-117 -47 -132 -129q-37 -199 -71 -398q-45 -229 -103 -391q43 -20 66.5 -26.5t46.5 -6.5q31 0 76 21q131 61 135 61q0 -115 -39 -172q-47 -70 -160 -69h-43 q-115 0 -150.5 33.5t-35.5 103.5z" />
<glyph unicode="\" horiz-adv-x="1093" d="M164 1604q0 27 4 43t4 24q80 -88 147 -219q29 -57 113 -252q68 -160 116 -246t138 -213q131 -182 150 -211q88 -129 137 -224t74.5 -184.5t25.5 -189.5l-4 -28q-72 111 -176 317q-59 119 -98 197q-59 121 -238 370q-199 279 -266 404q-127 233 -127 412z" />
<glyph unicode="]" horiz-adv-x="669" d="M150 74q49 10 73 14q88 18 127 35q115 51 164 344q31 182 31 416q0 109 -152 170q-80 33 -98 100q143 25 231 38t119 13q31 -131 31 -297q0 -156 -20.5 -308.5t-59.5 -330.5q-6 -25 -74 -315q-100 25 -198 47q-25 0 -58 -5t-61 -11l-33 16q-16 37 -22 74z" />
<glyph unicode="^" horiz-adv-x="845" d="M147 467q51 174 189 399q160 262 285 312q29 -59 122 -336t103 -328h-35q-117 0 -178 184q-8 27 -62 285q-72 -49 -145 -170q-61 -102 -121 -203q-74 -109 -158 -143z" />
<glyph unicode="_" horiz-adv-x="1417" d="M0 70q68 33 164 46t213 13q66 0 270 -10q82 -4 141 -4q86 0 250 37.5t234 37.5q49 0 85.5 -15t59.5 -54q-184 -63 -527 -106.5t-573 -43.5q-100 0 -170 19q-90 25 -147 80z" />
<glyph unicode="`" horiz-adv-x="321" d="M96 1458q0 31 17 41q12 0 31.5 -28.5t27.5 -45.5q43 -74 62.5 -166t19.5 -188q0 -137 -33 -262l-94 414q-31 154 -31 235z" />
<glyph unicode="a" horiz-adv-x="1019" d="M121 74q0 68 60.5 117t238.5 266q223 274 303 360q164 180 223 180q29 0 39 -27.5t10 -62.5t-20 -71q-10 -20 -43 -62q-74 -96 -123 -194q-39 -76 -90 -213q23 -2 44 -3.5t44 -1.5h33q12 0 29.5 2.5t25.5 2.5q-201 -131 -221 -150q-92 -80 -127 -362h98l27 24 q0 -61 -47 -100q-33 -27 -103 -47q-8 23 -18 59q-16 57 -17 107q0 53 11 102q4 25 49 170q-39 14 -58 18q-35 10 -61 11q-72 0 -158 -80q-94 -88 -147 -96zM422 293q20 -4 38 -4h11q115 0 178 123q51 98 51 223l-4 51z" />
<glyph unicode="b" horiz-adv-x="1044" d="M98 0q0 88 22.5 126t100.5 69q0 -51 21 -95q33 -14 70.5 -21t80.5 -7q156 0 353.5 189.5t197.5 336.5q0 57 -44 94t-105 37q-86 0 -218.5 -158.5t-197.5 -158.5l-55 4q31 184 159 393q12 20 250 360q156 223 211 379q35 -41 35 -88q0 -31 -92 -194q-27 -49 -187 -314 q-106 -176 -129 -217q68 14 146 31.5t129 17.5q27 0 43 -6t80 -41q8 -33 43 -80q16 -22 32 -45q0 -119 -166.5 -326.5t-287.5 -254.5q-57 -20 -124 -27.5t-144 -7.5z" />
<glyph unicode="c" d="M113 66q0 35 20.5 84t38.5 94q92 246 244 436q201 252 405 252q84 0 123 -50.5t39 -133.5q0 -158 -88 -281q-6 41 -6 82q0 23 2 68t2 67q0 74 -8 107q-16 69 -68 69h-2q-164 0 -380 -295t-216 -467l2 -51q141 0 311 39q59 14 306 84q188 54 307 74q-88 -68 -421 -169.5 t-450 -101.5q-86 0 -123.5 25t-37.5 68z" />
<glyph unicode="d" horiz-adv-x="1243" d="M109 172q0 158 224 349.5t392 191.5q104 0 197 -49q106 164 223 331q98 139 235 328l238 324h24q0 -70 -184 -318q-240 -322 -344 -526q-186 -365 -186 -711q0 -88 3 -125t15 -112q-45 45 -80 125q-27 59 -47 141q-100 -45 -198 -88q-92 -33 -218 -33q-123 0 -190 27 q-104 41 -104 145zM223 190q0 -70 88 -100q60 -22 145 -22h7q55 0 105 6t100 22q92 29 155 166q56 121 56 230q0 90 -33 137q-39 57 -127 57q-115 0 -305.5 -190.5t-190.5 -305.5z" />
<glyph unicode="e" horiz-adv-x="1443" d="M98 268q35 23 262 189q174 127 293 188q168 86 305 86q104 0 185 -43q-150 -49 -297 -98q-166 -63 -275 -150q68 -16 149 -21t181 -5q68 0 225.5 11t204.5 11q31 0 59.5 -4t53.5 -16q-113 -53 -258 -70q-88 -10 -271 -10q-209 0 -317.5 -9.5t-226.5 -58.5 q88 -119 247 -174q133 -45 310 -45q55 0 229 21q88 10 139 10l-2 -8q-80 -33 -227 -66t-236 -33q-186 0 -344 76q-76 37 -223 141q-109 78 -166 78z" />
<glyph unicode="f" horiz-adv-x="1318" d="M98 393q102 72 264 137q190 72 283 109q70 27 189 240q154 276 241 370q176 190 406 191q90 0 137 -67t47 -159q0 -98 -49 -192q-41 -82 -123 -164q0 55 29 131q66 174 65 219q0 63 -38 110.5t-99 47.5q-131 0 -340 -252q-186 -225 -240 -379l70 -8q39 0 170 21 q66 10 107 10q55 0 89.5 -14.5t59.5 -55.5q-430 0 -614 -215q-80 -94 -172 -401q-66 -217 -207 -217q10 90 76 208q57 100 116 203q61 123 62 217l-6 56q-170 -53 -340 -105q-145 -45 -148 -45z" />
<glyph unicode="g" horiz-adv-x="1019" d="M111 190q0 131 249 326q225 174 385 221q129 -51 175 -84q88 -66 88 -164q0 -90 -152 -354q-106 -186 -311 -489q-152 -223 -248 -357q31 131 111 281q39 72 159 264q109 170 154 262q-57 23 -127 23q-43 0 -105 -8q-141 -18 -178 -19q-74 0 -123 17q-78 27 -77 81z M197 221q129 -28 255 -28h9q195 0 291 63q118 78 118 258q0 59 -32.5 96t-94.5 37q-127 0 -305 -158q-131 -117 -241 -268z" />
<glyph unicode="h" horiz-adv-x="819" d="M129 184q0 39 61 254q41 143 127 414q68 215 99 291q78 201 205 381q-10 -35 -101 -326q-123 -399 -151 -498q-78 -268 -78 -301l6 -57q104 102 211 207q135 113 262 113q4 -14 34 -34.5t30 -92.5q0 -94 -39 -285q-45 -217 -88 -266l-62 -7q0 61 43 287q20 106 21 176 q0 61 -13 123q-104 -35 -202 -137q-80 -96 -160 -190q-100 -117 -187 -164q-18 55 -18 112z" />
<glyph unicode="i" horiz-adv-x="546" d="M160 156q0 176 102 352q119 203 285 203q-168 -133 -250 -340q-74 -186 -74 -418q-35 37 -49 88t-14 115zM395 1137q0 27 74 108q4 6 51 55q4 -18 10.5 -47t6.5 -47q0 -49 -30 -76.5t-85 -50.5l-25 27z" />
<glyph unicode="j" horiz-adv-x="522" d="M-520 -616l45 8q27 0 57 -8q82 -23 103 -23q229 0 389 295q106 197 209 614q111 449 137 514q20 -31 31.5 -77t11.5 -89q0 -74 -17.5 -148.5t-50.5 -166.5q-66 -203 -129 -405q-100 -285 -213 -433q-155 -202 -352 -202h-2q-66 0 -145 61q-37 31 -74 60zM471 1327l25 25 q8 -2 26 -2q31 0 62 8q43 14 61 18l27 -2l2 -8q0 -20 -40 -64.5t-60.5 -50.5t-36 -10t-25.5 -4q-16 0 -20 12z" />
<glyph unicode="k" horiz-adv-x="1218" d="M117 32q-1 8 -1 16t1 18q0 186 227 475q100 123 203 245q51 63 123 215q92 193 123 246q76 131 151 178q0 -176 -104 -362q-57 -104 -228 -326q-162 -211 -215 -321q82 0 239 73.5t307.5 149.5t189.5 76q14 0 38.5 -9.5t47.5 -19.5q-94 -102 -320 -184 q-307 -111 -354 -137q6 -8 329 -252q123 -92 146 -185q-123 43 -254 133q-330 227 -348 236q-109 -27 -176.5 -152t-118.5 -145q-4 16 -6 32z" />
<glyph unicode="l" horiz-adv-x="645" d="M158 248q0 88 108 332q84 188 221 450q90 172 183 346l26 -24h25q-18 -154 -129 -367q-98 -178 -198.5 -368.5t-100.5 -323.5q0 -49 41 -139.5t41 -139.5l-4 -39q-104 37 -156 99q-57 68 -57 174z" />
<glyph unicode="m" horiz-adv-x="1667" d="M96 -47q16 137 160.5 349t265.5 261l25 -98q164 100 196 115q76 36 121 36h2q53 0 86 -38q27 -31 41 -89q197 80 279 105q143 43 295 43q104 0 104 -102q0 -88 -103.5 -290t-172.5 -245q-10 25 -16.5 42t-6.5 30q0 49 92 200.5t92 221.5q0 45 -31.5 61t-82.5 16 q-207 0 -326 -102q-57 -49 -166 -223q-98 -158 -205 -223l-4 43q-1 8 -1 16q0 60 38 137q100 205 101 285l-9 37q-190 -43 -354 -187q-66 -57 -235 -252q-117 -135 -185 -149z" />
<glyph unicode="n" horiz-adv-x="995" d="M98 72q0 137 181 364q113 143 145 201l22 -123q199 84 211 88q145 55 215 55q68 0 95.5 -36.5t27.5 -106.5q0 -102 -71 -272q-31 -72 -129 -267q-12 25 -18.5 58t-6.5 63q0 74 33 172q76 227 76 291l-9 29q-137 -16 -283.5 -88t-248.5 -168q-43 -39 -78 -97.5t-67 -111.5 q-12 -18 -39 -30.5t-56 -20.5z" />
<glyph unicode="o" horiz-adv-x="845" d="M133 262q0 168 210 355.5t380 187.5q78 0 111 -80q22 -55 22 -145q0 -184 -154 -381q-164 -211 -342 -211q-94 0 -160.5 89t-66.5 185zM221 254q0 -74 32 -126t103 -52q121 0 259.5 134t138.5 255q0 68 -54 160q-27 43 -53 88q-152 -61 -276 -181q-150 -141 -150 -278z " />
<glyph unicode="p" d="M-59 -537q0 76 98 352.5t209 524.5q121 272 174 322q96 92 219 144t254 52q115 0 176.5 -53t61.5 -164q0 -162 -136 -389q-150 -250 -299 -250q-90 0 -133 115q-30 79 -30 183v7q0 33 2 57.5t10 51.5q27 -182 33 -207q37 -143 108 -143q104 0 248 223q135 211 135 323 q0 84 -51 122t-139 38q-276 0 -439 -315q-51 -100 -221 -631q-121 -379 -268 -463q-12 49 -12 100z" />
<glyph unicode="q" horiz-adv-x="919" d="M104 313q0 131 228 250q201 104 350 105q98 0 158 -41q69 -50 69 -144q0 -92 -129 -225q-12 -12 -209 -186q90 -70 125 -107q68 -72 68 -145q0 -143 -204 -371.5t-351 -228.5q-53 0 -75.5 33.5t-22.5 91.5q0 109 71 260q43 88 152 268q102 168 137 248q-199 49 -217 55 q-150 55 -150 137zM197 317q94 -57 118 -69q66 -31 136 -31q135 0 245 178q50 84 99 168q-72 23 -146 23q-141 0 -266 -73t-186 -196zM213 -614q0 -49 12 -97q135 29 290 195t155 299q0 59 -39 113.5t-96 54.5q-92 0 -211 -236q-111 -217 -111 -329z" />
<glyph unicode="r" horiz-adv-x="1118" d="M123 2q0 129 145 379q94 152 127 209q43 -27 60.5 -43.5t40.5 -54.5q162 63 254 84.5t168 21.5q135 0 276 -59h-113q-199 0 -297 -17q-154 -27 -288 -106q-14 -8 -211 -293q-74 -106 -162 -121z" />
<glyph unicode="s" horiz-adv-x="870" d="M121 94l2 25q45 -25 96 -40.5t100 -15.5q72 0 154 58q90 63 90 131q0 96 -137 174q-160 90 -180 137q70 29 243 125q261 146 431 146q-74 -74 -289 -166q-145 -61 -187 -80q86 -104 136 -164q92 -113 92 -182q0 -113 -150 -197q-129 -72 -254 -72q-68 0 -110 29 q-37 25 -38 77q0 7 1 15z" />
<glyph unicode="t" horiz-adv-x="1019" d="M98 590q387 51 512 121q92 51 166 213q106 231 244 403l24 -24l25 -3q-29 -121 -133 -276q-141 -213 -166 -262l68 -8q55 0 114.5 10t116.5 20q-55 -59 -176 -104q-20 -8 -116.5 -41t-241 -202t-144.5 -257q0 -45 49 -106q39 -47 80 -94q-94 8 -153 51q-70 51 -70 139 q0 90 104 240q70 94 95 129q-20 6 -45 8t-54 2q-31 0 -101.5 -4t-72.5 -4q-23 0 -46 2t-46 8z" />
<glyph unicode="u" horiz-adv-x="919" d="M104 229q0 150 80 316q88 182 213 239q-4 -43 -141 -346q-57 -127 -57 -243q0 -61 22.5 -95t81.5 -34q66 0 143 45q53 31 123 94q174 156 240 422q33 129 86 182q23 -45 23 -94q0 -66 -64 -191q-29 -55 -57 -108q-88 -176 -197 -279q-143 -137 -309 -137 q-94 0 -140.5 65.5t-46.5 163.5z" />
<glyph unicode="v" horiz-adv-x="1169" d="M121 760q125 -35 172 -197q31 -106 31 -305q0 -37 -1 -70.5t-1 -64.5q90 25 198 141q55 59 195 236q121 154 184 207q45 37 131 100t141 102l97 -51q-39 -61 -111 -110q-90 -55 -137 -86q-111 -70 -258 -254q-219 -274 -234 -289q-131 -137 -237 -137q-57 0 -77.5 44 t-20.5 115q0 27 2 63t6 77q0 76 -25 180q-55 236 -55 299z" />
<glyph unicode="w" horiz-adv-x="1468" d="M96 94q0 154 124 315.5t278 178.5q-123 -96 -195 -203q-88 -131 -88 -264q0 -41 8 -74q117 27 273.5 205t199.5 188q2 -12 4 -40.5t2 -75.5q0 -131 19 -174q33 -78 149 -78q156 0 330 145q182 154 182 303q0 59 -32 107q-88 125 -90 137l12 31q10 4 27.5 10t27.5 6 q59 0 105 -100q36 -82 36 -154q0 -182 -219 -376.5t-409 -194.5q-106 0 -168 80q-49 61 -76 178q-109 -117 -117 -125q-152 -154 -246 -154q-55 0 -96 37t-41 92z" />
<glyph unicode="x" horiz-adv-x="1243" d="M150 -29q203 166 319 273q127 117 127 151q0 55 -109 166q-123 127 -141 174q129 0 256 -133q82 -94 119 -135q72 72 184 151q74 53 338 216h25q-20 -70 -320 -281q-127 -90 -127 -170q0 -74 150 -199q176 -145 196 -184q-113 25 -280.5 163t-194.5 138q-45 0 -231 -147 q-197 -156 -311 -183z" />
<glyph unicode="y" horiz-adv-x="1069" d="M-147 -981q20 84 163.5 283.5t286.5 392.5q170 231 217 328q-123 43 -258 165q-153 138 -153 249q0 42 24.5 74t65.5 54q0 -139 82 -286q94 -170 223 -170q137 0 233 165q78 160 156 322q98 186 225 213q-59 -143 -333.5 -564t-534.5 -769q-297 -399 -397 -457z" />
<glyph unicode="z" horiz-adv-x="1243" d="M98 -72q0 72 116 182.5t232 219.5q141 137 175 235q-51 0 -119 -18q-158 -43 -197 -43q-66 0 -108 35l548 172l25 -25l25 25h24l27 -25h24q-16 -90 -178 -256q-123 -119 -246 -235l797 -74q-100 -29 -228 -38t-278 -9h-166q-80 0 -182 -39q-270 -102 -291 -107z" />
<glyph unicode="{" horiz-adv-x="696" d="M172 514q0 29 7 58.5t18.5 62.5t52.5 227q53 256 196 318q-8 -33 -69 -219q-80 -248 -80 -381q0 -205 111 -334q143 -136 288 -269q-137 0 -235.5 50.5t-164 167t-81.5 151.5q-43 92 -43 168z" />
<glyph unicode="|" horiz-adv-x="495" d="M225 254q0 63 47 342q8 49 66 367q14 82 44 142t89 99q12 -43 12 -90q0 -70 -28 -153q-84 -244 -84 -250q-41 -266 -62 -400q-4 -27 -39 -239q-25 37 -35 86t-10 96z" />
<glyph unicode="}" horiz-adv-x="571" d="M160 1139q0 25 7 42t30 17q63 0 122 -100q39 -66 68 -154q16 -51 93 -196.5t77 -155.5q0 -90 -137 -322q-147 -250 -248 -270l2 25q113 281 225 561q0 82 -119.5 297t-119.5 256z" />
<glyph unicode="~" horiz-adv-x="1193" d="M147 885q150 145 199 182q84 63 125 63q80 -74 154.5 -130t169.5 -56q41 0 98 8q131 18 166 19q51 0 83 -12.5t52 -51.5q-119 -33 -204 -50t-177 -17q-104 0 -211 39q-100 45 -201 90q-43 0 -120.5 -42t-133.5 -42z" />
<glyph unicode="&#xa1;" horiz-adv-x="745" d="M61 4q0 61 15.5 122.5t44.5 123.5q57 123 115 246q80 211 120 315q74 188 154 299q0 -135 -72 -313q-63 -152 -127 -301q-10 -29 -39.5 -128.5t-48.5 -152.5q-27 -74 -59 -123q-43 -63 -103 -88zM434 1530l37 57q14 -4 29 -6t35 -2q-10 -20 -20.5 -39.5t-16.5 -17.5 l-19 6z" />
<glyph unicode="&#xa2;" d="M113 66q0 35 20.5 84t38.5 94q78 209 209 389q168 231 346 285q33 90 75 158.5t101 113.5q0 -23 -3 -52.5t-11 -66.5t-16.5 -62.5t-28.5 -78.5q70 0 104.5 -52.5t34.5 -129.5q0 -158 -88 -281q-6 41 -6 82q0 23 2 68t2 67q0 74 -8 107q-16 70 -70 69q-51 -102 -76 -153 q-47 -96 -67 -160l-152 -463q312 80 625 160q-63 -47 -266 -119q-190 -66 -381 -113l-99 -297q-8 39 -8 88q0 68 17 150l10 41q-102 -20 -144 -21q-86 0 -123.5 25t-37.5 68zM219 98l2 -51q66 0 102.5 3t116.5 18q45 141 127 387q37 106 125 364q-162 -94 -317.5 -336.5 t-155.5 -384.5z" />
<glyph unicode="&#xa3;" horiz-adv-x="1443" d="M158 98q0 12 100 189q78 137 217 375q-16 45 -24 57q-16 25 -39 24q-39 0 -78 -32q-72 -59 -88 -70l-25 45q20 12 98 72q45 35 89 35q35 0 61.5 -19.5t42.5 -50.5l221 371q33 53 84 102q80 76 148 76q47 0 112 -80q20 -27 58 -82q-47 25 -72 37q-80 39 -105 39 q-59 0 -182 -160q-109 -139 -237 -362q12 -29 22 -52q23 -45 51 -45q51 0 87 44t63 67l33 -37q-23 -20 -70 -71.5t-109 -51.5q-41 0 -66.5 20.5t-45.5 61.5q-139 -248 -205 -430q57 -23 119.5 -33t128.5 -10q88 0 215 16q289 37 358 37q63 0 131 -57q62 -58 123 -113 q-90 0 -186 40t-178 40q-90 0 -258 -20q-385 -47 -455 -47q-74 0 -106.5 19t-32.5 56z" />
<glyph unicode="&#xa4;" horiz-adv-x="1024" d="M37 373q-16 16 20 61q16 20 39 43l35 33q-35 82 -35 180q0 74 25.5 167t73.5 177q-76 80 -104 123t-28 68q0 16 10.5 26.5t28.5 10.5q35 0 93 -52q33 -35 67 -67l4 -10q37 41 81 64.5t93 23.5q29 0 68 -13q57 -20 117 -39q12 -4 39 -4q25 0 47 2t45 4l63 -4q31 25 51 39 q49 33 78 33q15 0 23 -8q12 -12 12 -31q0 -33 -59 -98q29 -49 28 -144q0 -86 -40 -184t-109 -186q63 -72 98 -123q45 -68 45 -109q0 -25 -16 -41t-62 21q-20 16 -43 39l-110 119q-80 -72 -168 -112t-180 -40q-49 0 -93.5 18.5t-74.5 47.5q-76 -51 -121 -52q-25 0 -41 17z M188 690q0 -106 46.5 -181t113.5 -75q170 0 328 131q203 170 203 461q0 39 -97.5 54.5t-302.5 15.5q-121 0 -213 -156q-78 -133 -78 -250z" />
<glyph unicode="&#xa5;" d="M-31 305q53 25 219 64t322 65l92 109l-168 -25q-113 -23 -223 -43q-31 0 -53.5 9.5t-34.5 35.5q59 29 219 66t344 67q72 100 72 158q0 51 -119 225q-111 162 -168 215q-4 33 12 62q47 14 88 14q31 -115 142 -285q53 -80 106 -159q76 74 176 211q127 170 168 219 q104 121 205 184q6 -18 15.5 -44t9.5 -28q0 -59 -82 -178q-63 -92 -211 -260q-80 -90 -283 -313q92 12 144 12q78 0 133 -16.5t104 -63.5q-139 -14 -180 -18q-238 -25 -307 -33l-93 -102q123 18 189 18q78 0 133 -16.5t104 -63.5q-131 -12 -256.5 -24.5t-269.5 -30.5 q-188 -223 -293 -387q-125 -197 -139 -328q-49 -45 -109 -61l-6 55q0 94 66 217q51 96 166 242q80 100 209 248l-131 -19q-113 -23 -224 -43q-31 0 -53 9.5t-35 35.5z" />
<glyph unicode="&#xa6;" horiz-adv-x="495" d="M182 53q-4 35 17 178q12 90 32 195q8 43 32 80t77 63q16 -18 18 -43q6 -35 -14 -80q-57 -133 -61 -156.5t-17.5 -137t-21.5 -183.5q-27 14 -41.5 36t-20.5 48zM297 758q-4 31 27 196q10 57 20 104.5t31.5 76t73.5 55.5q14 -21 16 -37q4 -29 -14 -68q-57 -113 -58 -116 l-43 -279q-47 23 -53 68z" />
<glyph unicode="&#xa7;" horiz-adv-x="1181" d="M150 -528q319 74 401 110q229 106 229 314q0 131 -172 194q-123 45 -286 45q43 141 171 257t293 173q-117 31 -179 118t-62 185q0 162 194 301q182 131 355 131q33 0 76.5 -3t58.5 -7l26 -41q-319 -74 -401 -110q-229 -106 -229 -314q0 -98 98 -159q78 -47 207 -68l65 4 q68 0 109 -24.5t41 -88.5q0 -176 -125 -307q-80 -76 -158 -151q-12 -25 -12 -64q0 -25 5 -65.5t5 -48.5q0 -162 -194 -302q-182 -131 -355 -131q-33 0 -77 3.5t-58 7.5zM469 256q150 -80 182 -100q94 -57 168 -121q88 88 156 182q94 131 94 211q0 55 -44 76.5t-107 21.5 q-143 0 -302 -131q-39 -33 -147 -139z" />
<glyph unicode="&#xa8;" horiz-adv-x="835" d="M90 1364q33 88 55 125q45 70 107 70q25 0 56.5 -10.5t80.5 -39.5q-80 -82 -108 -102q-66 -47 -142 -47zM475 1356q33 88 55 125q45 70 107 69q25 0 56.5 -10t80.5 -39q-80 -82 -108 -102q-66 -47 -142 -47z" />
<glyph unicode="&#xa9;" horiz-adv-x="1710" d="M92 551q0 281 160 584q188 356 442 356q96 0 309.5 -28.5t303.5 -28.5q184 0 247 -107q50 -82 50 -293q0 -410 -261 -731q-297 -367 -780 -366q-231 0 -360 202q-111 174 -111 412zM209 551q0 -176 70 -320q88 -180 241 -180q512 0 776 352q226 299 226 768q0 90 -88 118 t-310 28q-82 0 -170 -1t-184 -1q-229 0 -403 -273q-158 -246 -158 -491zM340 334q0 47 16.5 98t42.5 103q96 195 174 307q104 152 224 241q133 102 309 146q39 -33 80 -64q53 -47 53 -78q0 -49 -35 -67q-25 -12 -78 -12q0 74 -20.5 103.5t-56.5 29.5q-156 0 -394.5 -297 t-238.5 -471q0 -39 20.5 -55.5t57.5 -16.5q80 0 211 58.5t256 117.5q152 70 239 86q-274 -182 -348 -223q-213 -117 -385 -117q-59 0 -93 24.5t-34 86.5z" />
<glyph unicode="&#xaa;" horiz-adv-x="552" d="M35 954q0 33 31 58q162 188 251 293q98 113 132 112q10 0 16 -8q8 -12 8 -37q0 -18 -10 -37q-4 -6 -23 -30q-39 -51 -61 -97q-14 -27 -45 -106q33 -4 45 -4q14 0 43 4q-109 -72 -111 -74q-45 -39 -63 -184h49l14 12q0 -31 -21.5 -47t-53.5 -27q-4 14 -10.5 42t-6.5 42 q0 33 11.5 74t17.5 64l-21 6q-25 8 -39 8q-35 0 -80 -42t-71 -46zM186 1065q16 -4 25 -2q55 0 88 61q27 52 27 111l-2 27z" />
<glyph unicode="&#xab;" horiz-adv-x="1769" d="M78 606q0 68 155 176q57 39 117 78q16 12 236 266q96 111 235 201l74 -49q-72 -115 -197 -238q-27 -27 -229 -209q-145 -131 -221 -219q31 -27 135 -123q150 -137 240 -196q51 -31 75 -45q76 -45 115 -90q33 -37 54.5 -93.5t29.5 -111.5q-55 25 -255 175.5t-374 295.5 q-190 158 -190 182zM717 606q0 68 155 176q57 39 117 78q16 12 236 266q96 111 235 201l74 -49q-72 -115 -197 -238q-27 -27 -229 -209q-145 -131 -221 -219q31 -27 135 -123q150 -137 240 -196q51 -31 75 -45q76 -45 115 -90q33 -37 54.5 -93.5t29.5 -111.5 q-55 25 -255 175.5t-374 295.5q-190 158 -190 182z" />
<glyph unicode="&#xac;" horiz-adv-x="2457" d="M80 -170v1567h2300v-1567h-2300zM127 -88v-35h317v35h-34q-39 0 -52 4q-33 12 -32 80l2 328q35 0 71.5 -1t73.5 -1l10 51l-4 4h-151v74v51q0 66 17 102.5t73 36.5q35 0 59 -18l23 -111h59q55 164 117 319q45 117 133 318q18 -53 119 -315q76 -201 110 -322h62 q31 125 110 406q94 328 123 370q15 8 60 8v37h-244v-37q29 0 65.5 -5t36.5 -21q0 -51 -77 -316l-82 -266l-238 651h-29l-250 -645q-33 137 -65.5 282.5t-56.5 268.5q-8 12 -7 21q0 20 31 25t45 5h25v37h-293v-37q53 0 66.5 -13t25.5 -73q20 -88 45 -180q57 -215 66 -305 q-47 0 -120 -66.5t-95 -117.5q-8 -20 -11.5 -43t-3.5 -62v-61l-82 -41v-21l82 9l2 -314q0 -66 -17 -81t-85 -15zM440 150q0 -121 70 -203t188 -82q131 0 215 84t84 215q0 115 -73.5 186.5t-190.5 71.5q-125 0 -209 -74t-84 -198zM553 188q0 80 39 139.5t115 59.5 q98 0 145 -92q37 -71 37 -180q0 -84 -33 -142q-41 -70 -121 -69q-94 0 -143 100q-39 78 -39 184zM973 -88v-35h295l-2 35q-61 0 -81 17.5t-20 64.5q0 12 2 48t2 60v58q0 94 21 131q33 57 129 57q78 0 108 -47q25 -39 25 -127v-111v-24q0 -90 -8 -162h198v35q-59 0 -75.5 10 t-16.5 47q2 41 2 68v188q0 197 -190 197q-51 0 -102.5 -31t-88.5 -78q2 37 3 56q0 33 -11 53q-47 -20 -94 -32.5t-96 -12.5v-35q23 2 35 2q27 0 44 -7t17 -28v-352q0 -23 -10 -35t-43 -12q-29 2 -43 2zM1311 1090q0 -178 236.5 -201t236.5 -154q0 -86 -65.5 -131t-155.5 -45 q-53 0 -107 16q-72 23 -86 60l-2 98h-39v-67v-29q0 -41 -6 -82q104 -43 217 -43q55 0 105 12q10 -82 10 -147q-39 -23 -92 -39v-25h92v-321q0 -127 131 -127q16 0 36.5 4t37.5 8l55 70l-17 22q-27 -31 -65 -30q-39 0 -60.5 28.5t-21.5 108.5v26v222q16 0 52 2t52 2 q31 0 60 -6l12 55h-176q0 49 2 99t8 95q57 47 86 91q37 55 37 118q0 180 -235.5 200.5t-235.5 152.5q0 78 55.5 120.5t137.5 42.5q39 0 90 -15t78 -38q10 -23 10 -69v-41h37q0 61 3 87.5t15 75.5q-109 43 -227 43q-127 0 -209 -59q-92 -68 -92 -190zM1858 522h327v37h-33 q-43 0 -59 10.5t-16 55.5v512q0 20 -1 40.5t-1 39.5q0 49 19.5 64t90.5 15v37h-327v-37q76 0 92 -14t16 -76v-49v-528q0 -45 -19.5 -57.5t-60.5 -12.5h-28v-37zM1927 254q0 -109 159 -139.5t159 -104.5q0 -51 -37 -78.5t-90 -27.5q-86 0 -117 30.5t-31 114.5h-33 q0 -23 -4 -77t-4 -60q0 -20 46 -33.5t122 -13.5q96 0 162 45q78 53 78 145q0 102 -160 135t-160 103q0 43 32 68.5t77 25.5q33 0 63.5 -15.5t55.5 -43.5q6 -29 8 -35q2 -12 2 -37l33 -2q0 35 6 77t8 64q-86 27 -164 27q-90 0 -145 -37q-66 -45 -66 -131z" />
<glyph unicode="&#xad;" horiz-adv-x="1865" d="M0 512q94 59 289.5 106.5t318.5 47.5q74 0 138.5 -27t113.5 -90q-66 -10 -103.5 -12t-88.5 -2h-64t-61 2q-43 0 -91.5 -4.5t-121.5 -18.5q-119 -35 -238 -68q-33 0 -55.5 13.5t-36.5 52.5z" />
<glyph unicode="&#xae;" horiz-adv-x="1710" d="M92 551q0 281 160 584q188 356 442 356q96 0 309.5 -28.5t303.5 -28.5q184 0 247 -107q50 -82 50 -293q0 -410 -261 -731q-297 -367 -780 -366q-231 0 -360 202q-111 174 -111 412zM209 551q0 -176 70 -320q88 -180 241 -180q512 0 776 352q226 299 226 768q0 90 -88 118 t-310 28q-82 0 -170 -1t-184 -1q-229 0 -403 -273q-158 -246 -158 -491zM381 537q0 51 171 265t230 236q0 -37 -28.5 -81t-55.5 -83l27 -2q90 -8 216 88.5t126 169.5q0 59 -84 60q-154 0 -286 -88t-132 -213q0 137 50.5 195.5t205.5 113.5q68 23 114 32t81 9 q51 0 80.5 -19.5t29.5 -60.5q0 -117 -171 -232.5t-171 -142.5q0 -20 22.5 -60t43.5 -75q27 -55 39 -141t12 -172q0 -25 7 -43.5t30 -30.5q8 -4 40 -11t54 -9q-25 -8 -42 -12.5t-36 -4.5q-94 0 -133 254q-23 150 -39 180q-23 39 -77 52.5t-107 27.5q-18 -16 -102 -108 q-66 -74 -115 -94z" />
<glyph unicode="&#xaf;" horiz-adv-x="770" d="M-2 1325q86 39 266 68.5t293 29.5q72 0 128 -16t103 -59q-49 -4 -93 -7.5t-83 -3.5h-64.5t-62.5 2q-43 0 -81.5 -2t-102.5 -10q-111 -23 -219 -45q-29 0 -49.5 9t-34.5 34z" />
<glyph unicode="&#xb0;" horiz-adv-x="614" d="M199 1059q0 61 76.5 131t140.5 70q29 0 39 -24.5t10 -59.5q0 -70 -57.5 -145t-124.5 -75q-37 0 -60.5 32t-23.5 71zM231 1055q0 -29 11.5 -47.5t38.5 -18.5q45 0 96 49.5t51 94.5q0 20 -16.5 49.5t-22.5 44.5q-55 -23 -102 -68q-55 -53 -56 -104z" />
<glyph unicode="&#xb1;" horiz-adv-x="1865" d="M195 72q94 59 289.5 106t318.5 47q74 0 138.5 -26.5t113.5 -89.5q-66 -10 -104 -12.5t-89 -2.5h-63.5t-61.5 2q-43 0 -91 -4t-122 -18q-119 -35 -237 -68q-33 0 -55.5 13.5t-36.5 52.5zM229 614q57 70 174 129q98 47 199 95q66 33 123 178t152 166q-10 -41 -18.5 -82 t-8.5 -82q0 -25 7 -51.5t20 -57.5q125 35 208 52q117 22 215 22q-117 -35 -233 -68q-279 -94 -330 -229q-10 -27 -32 -151q-35 -193 -101 -240l-8 63q0 37 27 201q12 76 12 125l-6 78q-98 -45 -205 -91t-195 -57z" />
<glyph unicode="&#xb2;" horiz-adv-x="745" d="M-8 854h35q39 0 57 6q76 20 179.5 152.5t103.5 212.5q0 43 -33 57t-80 14q-63 0 -115 -36q-39 -33 -61 -50l-2 25q0 57 49 84t113 27q66 0 122 -26t56 -83q0 -82 -86 -195q-49 -63 -152 -163l43 -9q55 0 305 72t338 72h23q-152 -55 -416 -133q-326 -96 -401 -97 q-39 0 -58.5 15.5t-19.5 54.5z" />
<glyph unicode="&#xb3;" horiz-adv-x="598" d="M-31 860l275 -53q8 -2 22 -2q57 0 108.5 38t51.5 91q0 72 -47 103.5t-123 31.5q12 31 129 105q57 37 70 67q-41 29 -45 31q-33 18 -56 18q-12 0 -38.5 -14t-49.5 -27q-4 2 -22 4l-13 13q61 61 142 61q45 0 100 -32.5t55 -73.5q0 -29 -59 -58q-70 -27 -88 -33 q63 -70 91 -108.5t28 -75.5q0 -88 -84 -139q-74 -45 -168 -45q-82 0 -155 23.5t-124 74.5z" />
<glyph unicode="&#xb4;" horiz-adv-x="745" d="M186 1184q41 49 111 102q176 133 197.5 157.5t50 50.5t37.5 30q16 -4 38.5 -12.5t28.5 -8.5q21 0 23 25q-45 -129 -194.5 -236.5t-291.5 -107.5z" />
<glyph unicode="&#xb5;" horiz-adv-x="919" d="M96 -135q0 53 13 153q4 35 14 97q-18 49 -19 114q0 150 80 316q88 182 213 239q-4 -43 -141 -346q-57 -127 -57 -243q0 -61 22.5 -95t81.5 -34q66 0 143 45q53 31 123 94q174 156 240 422q33 129 86 182q23 -45 23 -94q0 -66 -64 -191q-29 -55 -57 -108 q-88 -176 -197 -279q-143 -137 -309 -137q-41 -2 -55 -2q-33 0 -56 29q-4 -39 -8 -86t-4 -58l-4 -151q-18 18 -43 64t-25 69z" />
<glyph unicode="&#xb6;" horiz-adv-x="1105" d="M-25 1407q0 115 40 185.5t115 106.5t163 36q76 0 154.5 -23.5t148.5 -62.5q182 -104 329.5 -348t147.5 -465q0 -72 -18 -138l12 23q-63 225 -117 352q-78 184 -180 316q-119 152 -287 247q-84 49 -180 50q-70 0 -130 -31t-96 -94.5t-36 -174.5q0 -176 73.5 -369.5 t172.5 -248.5l24 -6l35 4q41 96 50.5 326.5t74.5 341.5q23 -33 31 -72t8 -94q0 -39 -5 -83t-13 -93q-33 -223 -33 -469q0 -145 12 -323.5t29 -319.5q4 -31 41 -316q-82 70 -121 337t-39 777q-10 -10 -38 -29.5t-40 -25.5q-37 6 -72 14q-98 55 -177 268.5t-79 401.5z M582 1026q0 125 16 222.5t61 158.5q4 -12 14.5 -54t14.5 -81q4 -23 4 -63t2 -62q0 -70 -24 -307q-12 -119 -13 -191q0 -147 9 -364q18 -489 18 -613q-31 55 -48.5 124t-26.5 139.5t-15 305t-9 407.5t-3 378z" />
<glyph unicode="&#xb7;" horiz-adv-x="491" d="M115 649q33 88 55 125q45 70 106 70q25 0 57 -10t81 -39q-80 -82 -109 -103q-66 -47 -141 -47z" />
<glyph unicode="&#xb8;" horiz-adv-x="565" d="M-43 -307q8 0 86 -37q39 -18 86 -18q35 0 94 69q29 35 162 234q16 25 47 77q51 86 92 129q29 33 49 50q29 22 68 36q0 -154 -202.5 -421t-297.5 -267q-41 0 -100 58q-63 70 -84 90z" />
<glyph unicode="&#xb9;" horiz-adv-x="262" d="M43 555q0 59 37 150q18 43 37 88q27 61 40 137t24.5 139.5t21.5 83.5q20 45 53 53l4 -47q0 -117 -70.5 -308.5t-146.5 -295.5z" />
<glyph unicode="&#xba;" horiz-adv-x="448" d="M39 1094q0 84 104.5 178t190.5 94q39 0 53 -34t14 -79q0 -90 -79.5 -193.5t-167.5 -103.5q-47 0 -81 44t-34 94zM84 1090q0 -37 16.5 -63t51.5 -26q61 0 129.5 67t68.5 128q0 33 -26 80q-14 20 -27 43q-74 -29 -137 -90q-76 -72 -76 -139z" />
<glyph unicode="&#xbb;" horiz-adv-x="1548" d="M8 170q147 145 213 211q174 174 275 297q137 166 137 227q0 86 -228.5 189.5t-228.5 160.5q0 18 7 35t24 35q41 -55 135 -98q260 -119 264 -121q86 -76 174 -150l6 -12q16 -12 27 -20q8 -8 16 -17l2 -16q4 -25 -20 -45q-88 -72 -330 -320q-127 -129 -200.5 -191.5 t-126.5 -96.5q-72 -45 -146 -68zM647 170q147 145 213 211q174 174 275 297q137 166 137 227q0 86 -228.5 189.5t-228.5 160.5q0 18 7 35t24 35q41 -55 135 -98q260 -119 264 -121q86 -76 174 -150l6 -12q16 -12 27 -20q8 -8 16 -17l2 -16q4 -25 -20 -45q-88 -72 -330 -320 q-127 -129 -200.5 -191.5t-126.5 -96.5q-72 -45 -146 -68z" />
<glyph unicode="&#xbc;" horiz-adv-x="1433" d="M-113 -295q8 63 35 127q35 84 117 193.5t237 293.5q186 219 248 299q135 174 209 316q135 279 271 559q59 102 85.5 137t67.5 64q0 -250 -252 -664q-184 -303 -536 -739q-242 -293 -482 -586zM381 780q0 59 37 150q18 43 37 88q27 61 40 137t24 139.5t22 83.5 q20 45 53 54l4 -48q0 -117 -70.5 -308t-146.5 -296zM825 362q4 12 99.5 133t107.5 130q25 18 68 18q-66 -78 -98.5 -125t-51.5 -84q29 -12 59.5 -19t61.5 -7q88 0 161.5 131t151.5 131q-43 -55 -86 -111q-57 -80 -67 -123q4 -16 18.5 -28.5t24.5 -20.5q-76 -20 -133.5 -81.5 t-163.5 -215.5q-121 -174 -139 -233l-4 41q0 49 69 155q195 295 195 297q-12 4 -39 4q-20 0 -42 -2t-42 -4q-10 0 -40 7t-48 7l-37 -24z" />
<glyph unicode="&#xbd;" horiz-adv-x="1454" d="M35 -184q8 63 35 127q35 84 116.5 193.5t237.5 293.5q186 219 248 299q135 174 209 315q135 279 270 560q59 102 86 136.5t68 63.5q0 -250 -252 -663q-184 -303 -537 -740q-242 -293 -481 -585zM346 858q0 59 37 150q18 43 37 88q27 61 40 137t24.5 139.5t21.5 83.5 q20 45 53 53l4 -47q0 -117 -70.5 -308t-146.5 -296zM829 76h35q39 0 58 6q76 20 179 152.5t103 211.5q0 43 -32.5 57.5t-79.5 14.5q-63 0 -115 -37q-39 -33 -62 -49l-2 25q0 57 49.5 83.5t112.5 26.5q66 0 122 -25.5t56 -82.5q0 -82 -86 -195q-49 -63 -151 -164l43 -8 q55 0 305 72t338 72h22q-152 -55 -415 -134q-326 -96 -402 -96q-39 0 -58.5 15.5t-19.5 54.5z" />
<glyph unicode="&#xbe;" horiz-adv-x="1484" d="M57 -160q8 63 35 127q35 84 117 193.5t237 294.5q186 219 248 299q135 174 209 315q135 279 271 559q59 102 85.5 137t67.5 64q0 -250 -252 -664q-184 -303 -536 -739q-242 -293 -482 -586zM133 1034l275 -53q8 -2 22 -2q57 0 108.5 38t51.5 91q0 72 -47 103.5t-123 31.5 q12 31 129 105q57 37 69 67q-41 29 -45 31q-33 18 -55 18q-12 0 -38.5 -14t-49.5 -27q-4 2 -22 4l-13 13q61 61 142 61q45 0 100 -32.5t55 -73.5q0 -29 -59 -58q-70 -27 -88 -32q63 -70 91 -109t28 -76q0 -88 -84 -139q-74 -45 -168 -45q-82 0 -155 23.5t-124 74.5zM856 322 q4 12 99.5 132.5t107.5 129.5q25 18 67 18q-66 -78 -98.5 -125t-50.5 -84q29 -12 59.5 -19t61.5 -7q88 0 161.5 131t151.5 131q-43 -55 -86 -111q-57 -80 -67 -123q4 -16 18 -28.5t25 -20.5q-76 -20 -133.5 -81.5t-163.5 -215.5q-121 -174 -140 -233l-4 41q0 49 70 155 q195 295 194 297q-12 4 -38 4q-20 0 -42 -2t-42 -4q-10 0 -40 7.5t-48 7.5l-37 -25z" />
<glyph unicode="&#xbf;" horiz-adv-x="1069" d="M272 96q0 84 172 266q160 164 322 330q174 197 174 309l10 17l54 18q27 -53 26 -121q0 -174 -237 -413q-182 -176 -363 -352q35 -8 65.5 -10.5t73.5 -2.5q133 0 332 160q92 74 176 74q-61 -211 -246 -299q-145 -70 -397 -70q-86 0 -124 25.5t-38 68.5zM854 1356 q27 76 86 114q41 27 139 54l6 -62q0 -72 -61 -94q-35 -12 -125 -12h-45z" />
<glyph unicode="&#xc0;" horiz-adv-x="1417" d="M150 514q172 51 258 78q156 49 229 127q47 51 162 217q94 141 191 284.5t124 165.5q43 35 78 35q10 0 34.5 -2t30.5 -2q31 0 107 43q41 23 61 23q29 0 45.5 -4t22.5 -4q-23 -121 -115 -279q-213 -362 -235 -459q37 -10 74.5 -18t76.5 -8q-190 -82 -239 -117 q-121 -86 -121 -223q0 -111 61 -232q20 -39 62 -98l-37 -41q-78 53 -117 111q-45 68 -45 155q0 70 20.5 165t41.5 183q-221 -27 -318 -102q-35 -29 -121 -158q-70 -104 -184 -161q0 68 27 122q6 12 122 174zM743 686l50 -4q184 0 323 211q125 190 125 385 q-117 -57 -280 -262q-143 -178 -218 -330zM1083 2230q0 31 17 41q12 0 31.5 -28.5t27.5 -45.5q43 -74 62.5 -166t19.5 -188q0 -137 -33 -262l-94 414q-31 154 -31 235z" />
<glyph unicode="&#xc1;" horiz-adv-x="1417" d="M150 514q172 51 258 78q156 49 229 127q47 51 162 217q94 141 191 284.5t124 165.5q43 35 78 35q10 0 34.5 -2t30.5 -2q31 0 107 43q41 23 61 23q29 0 45.5 -4t22.5 -4q-23 -121 -115 -279q-213 -362 -235 -459q37 -10 74.5 -18t76.5 -8q-190 -82 -239 -117 q-121 -86 -121 -223q0 -111 61 -232q20 -39 62 -98l-37 -41q-78 53 -117 111q-45 68 -45 155q0 70 20.5 165t41.5 183q-221 -27 -318 -102q-35 -29 -121 -158q-70 -104 -184 -161q0 68 27 122q6 12 122 174zM743 686l50 -4q184 0 323 211q125 190 125 385 q-117 -57 -280 -262q-143 -178 -218 -330zM1300 1620q41 49 111 102q176 133 197.5 157.5t50 50.5t37.5 30q16 -4 38.5 -12.5t28.5 -8.5q21 0 23 25q-45 -129 -194.5 -236.5t-291.5 -107.5z" />
<glyph unicode="&#xc2;" horiz-adv-x="1417" d="M150 514q172 51 258 78q156 49 229 127q47 51 162 217q94 141 191 284.5t124 165.5q43 35 78 35q10 0 34.5 -2t30.5 -2q31 0 107 43q41 23 61 23q29 0 45.5 -4t22.5 -4q-23 -121 -115 -279q-213 -362 -235 -459q37 -10 74.5 -18t76.5 -8q-190 -82 -239 -117 q-121 -86 -121 -223q0 -111 61 -232q20 -39 62 -98l-37 -41q-78 53 -117 111q-45 68 -45 155q0 70 20.5 165t41.5 183q-221 -27 -318 -102q-35 -29 -121 -158q-70 -104 -184 -161q0 68 27 122q6 12 122 174zM743 686l50 -4q184 0 323 211q125 190 125 385 q-117 -57 -280 -262q-143 -178 -218 -330zM1071 1569q41 113 150 260q127 172 227 205q23 -37 97.5 -220t80.5 -214h-29q-90 0 -139 121q-12 29 -49 186q-66 -37 -164 -178q-90 -131 -174 -160z" />
<glyph unicode="&#xc3;" horiz-adv-x="1417" d="M150 514q172 51 258 78q156 49 229 127q47 51 162 217q94 141 191 284.5t124 165.5q43 35 78 35q10 0 34.5 -2t30.5 -2q31 0 107 43q41 23 61 23q29 0 45.5 -4t22.5 -4q-23 -121 -115 -279q-213 -362 -235 -459q37 -10 74.5 -18t76.5 -8q-190 -82 -239 -117 q-121 -86 -121 -223q0 -111 61 -232q20 -39 62 -98l-37 -41q-78 53 -117 111q-45 68 -45 155q0 70 20.5 165t41.5 183q-221 -27 -318 -102q-35 -29 -121 -158q-70 -104 -184 -161q0 68 27 122q6 12 122 174zM743 686l50 -4q184 0 323 211q125 190 125 385 q-117 -57 -280 -262q-143 -178 -218 -330zM938 1639q94 76 127 98q98 70 144 69q14 0 96 -63t176 -63q37 0 110.5 8t112.5 8q43 0 69 -8t44 -35q-96 -20 -171 -32.5t-149 -12.5q-86 0 -176 26q-86 31 -170 62q-29 0 -123 -37q-51 -20 -90 -20z" />
<glyph unicode="&#xc4;" horiz-adv-x="1417" d="M150 514q172 51 258 78q156 49 229 127q47 51 162 217q94 141 191 284.5t124 165.5q43 35 78 35q10 0 34.5 -2t30.5 -2q31 0 107 43q41 23 61 23q29 0 45.5 -4t22.5 -4q-23 -121 -115 -279q-213 -362 -235 -459q37 -10 74.5 -18t76.5 -8q-190 -82 -239 -117 q-121 -86 -121 -223q0 -111 61 -232q20 -39 62 -98l-37 -41q-78 53 -117 111q-45 68 -45 155q0 70 20.5 165t41.5 183q-221 -27 -318 -102q-35 -29 -121 -158q-70 -104 -184 -161q0 68 27 122q6 12 122 174zM743 686l50 -4q184 0 323 211q125 190 125 385 q-117 -57 -280 -262q-143 -178 -218 -330zM1143 1581q33 88 55 125q45 70 107 70q25 0 56.5 -10.5t80.5 -39.5q-80 -82 -108 -102q-66 -47 -142 -47zM1528 1573q33 88 55 125q45 70 107 69q25 0 56.5 -10t80.5 -39q-80 -82 -108 -102q-66 -47 -142 -47z" />
<glyph unicode="&#xc5;" horiz-adv-x="1417" d="M150 514q172 51 258 78q156 49 229 127q47 51 162 217q94 141 191 284.5t124 165.5q43 35 78 35q10 0 34.5 -2t30.5 -2q31 0 107 43q41 23 61 23q29 0 45.5 -4t22.5 -4q-23 -121 -115 -279q-213 -362 -235 -459q37 -10 74.5 -18t76.5 -8q-190 -82 -239 -117 q-121 -86 -121 -223q0 -111 61 -232q20 -39 62 -98l-37 -41q-78 53 -117 111q-45 68 -45 155q0 70 20.5 165t41.5 183q-221 -27 -318 -102q-35 -29 -121 -158q-70 -104 -184 -161q0 68 27 122q6 12 122 174zM743 686l50 -4q184 0 323 211q125 190 125 385 q-117 -57 -280 -262q-143 -178 -218 -330zM1229 1685q0 80 96 166t176 86q37 0 49 -30.5t12 -73.5q0 -84 -73.5 -179.5t-155.5 -95.5q-43 0 -73.5 41t-30.5 86zM1270 1683q0 -37 13 -60.5t48 -23.5q57 0 120.5 62t63.5 119q0 29 -16 59q-25 39 -33 55q-68 -27 -127 -82 q-70 -66 -69 -129z" />
<glyph unicode="&#xc6;" horiz-adv-x="2095" d="M150 514q172 51 258 78q156 49 229 127q47 51 162 217q94 141 191 284.5t124 165.5q43 35 78 35q10 0 34.5 -2t30.5 -2q31 0 107 43q41 23 61 23q29 0 45.5 -4t22.5 -4q-20 -109 -92 -240q-70 -115 -137 -227q-84 -141 -113 -240q100 86 217 252q102 145 143 244 q33 -10 52.5 -14.5t42.5 -4.5q27 0 450 80q207 39 326 39q-225 -55 -449.5 -108.5t-351.5 -139.5q-164 -111 -295 -342q29 -6 56.5 -10t56.5 -4q74 0 288 44t222 42q-92 -35 -190.5 -70t-182.5 -53q-119 -27 -236 -51q-248 -72 -247 -269q0 -109 98 -163q84 -47 203 -47 q176 0 362 157q123 104 195 142q-18 -125 -230 -250q-197 -117 -333 -117q-111 0 -226 47q-137 55 -184 143q12 -94 66 -192q16 -33 53 -82l-37 -41q-78 53 -117 111q-45 68 -45 155q0 70 20.5 165t41.5 183q-221 -27 -318 -102q-35 -29 -121 -158q-70 -104 -184 -161 q0 68 27 122q6 12 122 174zM743 686l50 -4q184 0 323 211q125 190 125 385q-117 -57 -280 -262q-143 -178 -218 -330z" />
<glyph unicode="&#xc7;" horiz-adv-x="1343" d="M-197 -342q10 0 78 -29q35 -14 76 -14q45 0 145 127q61 80 82 106q12 16 56 76q37 51 63 76q-68 0 -108.5 33t-40.5 102q0 59 24 127q16 45 55 119q127 236 232 375q135 180 295 293q180 127 407 180q51 -39 105 -78q71 -59 71 -96q0 -59 -47 -82q-31 -14 -102 -15 q0 70 -16 107q-25 55 -86 55q-133 0 -342 -182q-188 -164 -342 -393.5t-154 -362.5q0 -45 27.5 -66.5t74.5 -21.5q109 0 281 72t338 145q199 86 317 105q-352 -217 -424 -256q-258 -135 -471 -156q-49 -135 -202.5 -297t-227.5 -162q-37 0 -88 43q-57 53 -76 70z" />
<glyph unicode="&#xc8;" horiz-adv-x="1492" d="M147 541q86 8 130.5 11t78.5 9q111 18 283 238q147 188 207 329q33 -10 52.5 -14t41.5 -4q27 0 451 80q206 39 325 39q-225 -55 -449.5 -108.5t-351.5 -139.5q-164 -111 -294 -342q29 -6 56.5 -10t55.5 -4q74 0 288 44t222 42q-92 -35 -190.5 -70t-182.5 -53 q-119 -27 -235 -51q-248 -72 -248 -269q0 -109 98 -164q84 -47 203 -47q176 0 363 158q123 104 194 141q-18 -125 -229 -250q-197 -117 -334 -116q-135 0 -268 67q-162 82 -162 203q0 51 35 131q16 37 35 76q-98 20 -175 74zM993 1919q0 31 17 41q12 0 31.5 -28.5 t27.5 -45.5q43 -74 62.5 -166t19.5 -188q0 -137 -33 -262l-94 414q-31 154 -31 235z" />
<glyph unicode="&#xc9;" horiz-adv-x="1492" d="M147 541q86 8 130.5 11t78.5 9q111 18 283 238q147 188 207 329q33 -10 52.5 -14t41.5 -4q27 0 451 80q206 39 325 39q-225 -55 -449.5 -108.5t-351.5 -139.5q-164 -111 -294 -342q29 -6 56.5 -10t55.5 -4q74 0 288 44t222 42q-92 -35 -190.5 -70t-182.5 -53 q-119 -27 -235 -51q-248 -72 -248 -269q0 -109 98 -164q84 -47 203 -47q176 0 363 158q123 104 194 141q-18 -125 -229 -250q-197 -117 -334 -116q-135 0 -268 67q-162 82 -162 203q0 51 35 131q16 37 35 76q-98 20 -175 74zM1118 1352q41 49 111 102q176 133 197.5 157.5 t50 50.5t37.5 30q16 -4 38.5 -12.5t28.5 -8.5q21 0 23 25q-45 -129 -194.5 -236.5t-291.5 -107.5z" />
<glyph unicode="&#xca;" horiz-adv-x="1492" d="M147 541q86 8 130.5 11t78.5 9q111 18 283 238q147 188 207 329q33 -10 52.5 -14t41.5 -4q27 0 451 80q206 39 325 39q-225 -55 -449.5 -108.5t-351.5 -139.5q-164 -111 -294 -342q29 -6 56.5 -10t55.5 -4q74 0 288 44t222 42q-92 -35 -190.5 -70t-182.5 -53 q-119 -27 -235 -51q-248 -72 -248 -269q0 -109 98 -164q84 -47 203 -47q176 0 363 158q123 104 194 141q-18 -125 -229 -250q-197 -117 -334 -116q-135 0 -268 67q-162 82 -162 203q0 51 35 131q16 37 35 76q-98 20 -175 74zM956 1302q41 113 150 260q127 172 227 205 q23 -37 97.5 -220t80.5 -214h-29q-90 0 -139 121q-12 29 -49 186q-66 -37 -164 -178q-90 -131 -174 -160z" />
<glyph unicode="&#xcb;" horiz-adv-x="1492" d="M147 541q86 8 130.5 11t78.5 9q111 18 283 238q147 188 207 329q33 -10 52.5 -14t41.5 -4q27 0 451 80q206 39 325 39q-225 -55 -449.5 -108.5t-351.5 -139.5q-164 -111 -294 -342q29 -6 56.5 -10t55.5 -4q74 0 288 44t222 42q-92 -35 -190.5 -70t-182.5 -53 q-119 -27 -235 -51q-248 -72 -248 -269q0 -109 98 -164q84 -47 203 -47q176 0 363 158q123 104 194 141q-18 -125 -229 -250q-197 -117 -334 -116q-135 0 -268 67q-162 82 -162 203q0 51 35 131q16 37 35 76q-98 20 -175 74zM907 1368q33 88 55 125q45 70 107 70 q25 0 56.5 -10.5t80.5 -39.5q-80 -82 -108 -102q-66 -47 -142 -47zM1292 1360q33 88 55 125q45 70 107 69q25 0 56.5 -10t80.5 -39q-80 -82 -108 -102q-66 -47 -142 -47z" />
<glyph unicode="&#xcc;" horiz-adv-x="1243" d="M147 2q98 57 105 61q33 27 45 58l-25 24q47 174 318 502q256 309 430 434q-80 31 -94 35q-55 18 -99 23l-30 39q137 0 338 39q286 55 333 61q-47 -63 -186 -88t-164 -60v-26l27 -25v-24l-27 24q-53 -90 -182 -207q-109 -94 -215 -186q-74 -68 -158 -188 q-72 -102 -141 -205q-25 -33 -49 -64q-33 -45 -33 -71q0 -41 38 -64.5t83 -23.5q43 0 119.5 12t89.5 14q-70 -59 -170.5 -85.5t-210.5 -26.5q-70 0 -142 18zM983 2001q0 31 17 41q12 0 31.5 -28.5t27.5 -45.5q43 -74 62.5 -166t19.5 -188q0 -137 -33 -262l-94 414 q-31 154 -31 235z" />
<glyph unicode="&#xcd;" horiz-adv-x="1243" d="M147 2q98 57 105 61q33 27 45 58l-25 24q47 174 318 502q256 309 430 434q-80 31 -94 35q-55 18 -99 23l-30 39q137 0 338 39q286 55 333 61q-47 -63 -186 -88t-164 -60v-26l27 -25v-24l-27 24q-53 -90 -182 -207q-109 -94 -215 -186q-74 -68 -158 -188 q-72 -102 -141 -205q-25 -33 -49 -64q-33 -45 -33 -71q0 -41 38 -64.5t83 -23.5q43 0 119.5 12t89.5 14q-70 -59 -170.5 -85.5t-210.5 -26.5q-70 0 -142 18zM1085 1432q41 49 111 102q176 133 197.5 157.5t50 50.5t37.5 30q16 -4 38.5 -12.5t28.5 -8.5q21 0 23 25 q-45 -129 -194.5 -236.5t-291.5 -107.5z" />
<glyph unicode="&#xce;" horiz-adv-x="1243" d="M147 2q98 57 105 61q33 27 45 58l-25 24q47 174 318 502q256 309 430 434q-80 31 -94 35q-55 18 -99 23l-30 39q137 0 338 39q286 55 333 61q-47 -63 -186 -88t-164 -60v-26l27 -25v-24l-27 24q-53 -90 -182 -207q-109 -94 -215 -186q-74 -68 -158 -188 q-72 -102 -141 -205q-25 -33 -49 -64q-33 -45 -33 -71q0 -41 38 -64.5t83 -23.5q43 0 119.5 12t89.5 14q-70 -59 -170.5 -85.5t-210.5 -26.5q-70 0 -142 18zM936 1397q41 113 150 260q127 172 227 205q23 -37 97.5 -220t80.5 -214h-29q-90 0 -139 121q-12 29 -49 186 q-66 -37 -164 -178q-90 -131 -174 -160z" />
<glyph unicode="&#xcf;" horiz-adv-x="1243" d="M147 2q98 57 105 61q33 27 45 58l-25 24q47 174 318 502q256 309 430 434q-80 31 -94 35q-55 18 -99 23l-30 39q137 0 338 39q286 55 333 61q-47 -63 -186 -88t-164 -60v-26l27 -25v-24l-27 24q-53 -90 -182 -207q-109 -94 -215 -186q-74 -68 -158 -188 q-72 -102 -141 -205q-25 -33 -49 -64q-33 -45 -33 -71q0 -41 38 -64.5t83 -23.5q43 0 119.5 12t89.5 14q-70 -59 -170.5 -85.5t-210.5 -26.5q-70 0 -142 18zM897 1444q33 88 55 125q45 70 107 70q25 0 56.5 -10.5t80.5 -39.5q-80 -82 -108 -102q-66 -47 -142 -47zM1282 1436 q33 88 55 125q45 70 107 69q25 0 56.5 -10t80.5 -39q-80 -82 -108 -102q-66 -47 -142 -47z" />
<glyph unicode="&#xd0;" horiz-adv-x="1267" d="M141 141q0 47 71 62.5t159 15.5h26q-82 -8 -110.5 -22.5t-65.5 -75.5q78 -41 143.5 -57.5t157.5 -16.5q0 94 53 219q39 92 123 230l-16 -2q-88 -16 -174 -33q-23 0 -39 7t-27 26q45 20 127 37.5t168 27.5q125 201 162 288t37 150q0 80 -77 131.5t-163 51.5 q-23 0 -65.5 -15.5t-61.5 -17.5q-25 2 -47 31q45 45 97.5 72.5t125.5 52.5l25 -25h25l24 -25h27l47 -51q119 18 254 -237q121 -230 121 -365q0 -315 -293 -475q-233 -127 -576 -127q-94 0 -161 27q-96 37 -97 116zM547 70q35 -8 80 -9q207 0 370.5 184.5t163.5 391.5 q0 184 -141 295q-39 -94 -86 -184q-33 -61 -105 -179l56 2q61 0 103 -11t81 -48q-104 -10 -174 -10h-50.5t-51.5 2q-72 -115 -129 -213q-70 -119 -117 -221z" />
<glyph unicode="&#xd1;" horiz-adv-x="1566" d="M147 -72q18 109 168 338q133 197 270.5 404t137.5 284q0 31 -8 64q-14 45 -19 61q49 16 88 36t160 87q-14 -96 -22.5 -165.5t-8.5 -137.5q0 -117 56 -334q25 -100 51 -198q94 147 246 438q160 307 243 442q150 244 308 400q-35 -147 -224 -478q-164 -276 -327 -553 q-170 -291 -170 -360q0 -76 49 -135l-84 6q-8 2 -23.5 -5t-27.5 -13q-25 -27 -49.5 -89.5t-65.5 -91.5q2 16 33 152q23 102 22 149q0 92 -45 292t-84 315q-109 -96 -225 -299q-98 -170 -195 -340q-121 -186 -254 -269zM756 1622q94 76 127 98q98 70 144 69q14 0 96 -63 t176 -63q37 0 110.5 8t112.5 8q43 0 69 -8t44 -35q-96 -20 -171 -32.5t-149 -12.5q-86 0 -176 26q-86 31 -170 62q-29 0 -123 -37q-51 -20 -90 -20z" />
<glyph unicode="&#xd2;" horiz-adv-x="1343" d="M164 201q0 164 159.5 413.5t374.5 432.5q233 199 404 198q115 0 170 -94q45 -78 45 -201q0 -311 -246 -563q-203 -209 -534 -346q-59 -25 -108.5 -40t-96.5 -15q-88 0 -128 60t-40 155zM248 182q0 -115 106 -114q70 0 150 32q55 23 139 74q203 125 275 178 q158 117 233 228q96 141 96 309l-6 69q-66 -72 -80 -84q-45 -43 -94 -65q10 39 41 80q12 16 61 67q-35 10 -62.5 27.5t-37.5 24.5q43 74 72 145q-27 8 -62 8q-145 0 -350 -186q-190 -172 -335.5 -408.5t-145.5 -384.5zM973 2015q0 31 17 41q12 0 31.5 -28.5t27.5 -45.5 q43 -74 62.5 -166t19.5 -188q0 -137 -33 -262l-94 414q-31 154 -31 235z" />
<glyph unicode="&#xd3;" horiz-adv-x="1343" d="M164 201q0 164 159.5 413.5t374.5 432.5q233 199 404 198q115 0 170 -94q45 -78 45 -201q0 -311 -246 -563q-203 -209 -534 -346q-59 -25 -108.5 -40t-96.5 -15q-88 0 -128 60t-40 155zM248 182q0 -115 106 -114q70 0 150 32q55 23 139 74q203 125 275 178 q158 117 233 228q96 141 96 309l-6 69q-66 -72 -80 -84q-45 -43 -94 -65q10 39 41 80q12 16 61 67q-35 10 -62.5 27.5t-37.5 24.5q43 74 72 145q-27 8 -62 8q-145 0 -350 -186q-190 -172 -335.5 -408.5t-145.5 -384.5zM1130 1403q41 49 111 102q176 133 197.5 157.5t50 50.5 t37.5 30q16 -4 38.5 -12.5t28.5 -8.5q21 0 23 25q-45 -129 -194.5 -236.5t-291.5 -107.5z" />
<glyph unicode="&#xd4;" horiz-adv-x="1343" d="M164 201q0 164 159.5 413.5t374.5 432.5q233 199 404 198q115 0 170 -94q45 -78 45 -201q0 -311 -246 -563q-203 -209 -534 -346q-59 -25 -108.5 -40t-96.5 -15q-88 0 -128 60t-40 155zM248 182q0 -115 106 -114q70 0 150 32q55 23 139 74q203 125 275 178 q158 117 233 228q96 141 96 309l-6 69q-66 -72 -80 -84q-45 -43 -94 -65q10 39 41 80q12 16 61 67q-35 10 -62.5 27.5t-37.5 24.5q43 74 72 145q-27 8 -62 8q-145 0 -350 -186q-190 -172 -335.5 -408.5t-145.5 -384.5zM874 1325q41 113 150 260q127 172 227 205 q23 -37 97.5 -220t80.5 -214h-29q-90 0 -139 121q-12 29 -49 186q-66 -37 -164 -178q-90 -131 -174 -160z" />
<glyph unicode="&#xd5;" horiz-adv-x="1343" d="M164 201q0 164 159.5 413.5t374.5 432.5q233 199 404 198q115 0 170 -94q45 -78 45 -201q0 -311 -246 -563q-203 -209 -534 -346q-59 -25 -108.5 -40t-96.5 -15q-88 0 -128 60t-40 155zM248 182q0 -115 106 -114q70 0 150 32q55 23 139 74q203 125 275 178 q158 117 233 228q96 141 96 309l-6 69q-66 -72 -80 -84q-45 -43 -94 -65q10 39 41 80q12 16 61 67q-35 10 -62.5 27.5t-37.5 24.5q43 74 72 145q-27 8 -62 8q-145 0 -350 -186q-190 -172 -335.5 -408.5t-145.5 -384.5zM684 1422q94 76 127 98q98 70 144 69q14 0 96 -63 t176 -63q37 0 110.5 8t112.5 8q43 0 69 -8t44 -35q-96 -20 -171 -32.5t-149 -12.5q-86 0 -176 26q-86 31 -170 62q-29 0 -123 -37q-51 -20 -90 -20z" />
<glyph unicode="&#xd6;" horiz-adv-x="1343" d="M164 201q0 164 159.5 413.5t374.5 432.5q233 199 404 198q115 0 170 -94q45 -78 45 -201q0 -311 -246 -563q-203 -209 -534 -346q-59 -25 -108.5 -40t-96.5 -15q-88 0 -128 60t-40 155zM248 182q0 -115 106 -114q70 0 150 32q55 23 139 74q203 125 275 178 q158 117 233 228q96 141 96 309l-6 69q-66 -72 -80 -84q-45 -43 -94 -65q10 39 41 80q12 16 61 67q-35 10 -62.5 27.5t-37.5 24.5q43 74 72 145q-27 8 -62 8q-145 0 -350 -186q-190 -172 -335.5 -408.5t-145.5 -384.5zM872 1348q33 88 55 125q45 70 107 70q25 0 56.5 -10.5 t80.5 -39.5q-80 -82 -108 -102q-66 -47 -142 -47zM1257 1340q33 88 55 125q45 70 107 69q25 0 56.5 -10t80.5 -39q-80 -82 -108 -102q-66 -47 -142 -47z" />
<glyph unicode="&#xd7;" horiz-adv-x="1865" d="M178 1128q14 2 43 2q80 0 181.5 -36.5t195.5 -69.5q25 -8 53 -8q51 0 149.5 42t145.5 42q29 0 47.5 -5t42.5 -22q-35 -23 -70.5 -46t-64.5 -52q-16 -16 -30.5 -40t-26.5 -54q156 -88 227 -142q62 -45 125 -106q-121 63 -240 129q-164 78 -272 78q-53 0 -96 -19 q-14 -6 -168 -108q-115 -76 -180 -76q-14 0 -23 2l39 49q37 37 160 125q68 49 98 78l49 59q-100 37 -198 76q-119 49 -187 102z" />
<glyph unicode="&#xd8;" horiz-adv-x="1343" d="M135 -172q14 92 90 192q-31 27 -46 75t-15 106q0 164 159.5 413.5t374.5 432.5q233 199 404 198l57 -6q43 63 55 78q33 39 76 65q0 -84 -45 -196q37 -39 54.5 -102.5t17.5 -133.5q0 -311 -246 -563q-203 -209 -534 -346q-59 -25 -108.5 -40t-96.5 -15l-43 4zM248 182 q0 -66 33 -92q74 86 215 227q176 176 223 230q119 131 186 241q45 74 103 185q71 137 100 186l-29 2q-145 0 -350 -186q-190 -172 -335.5 -408.5t-145.5 -384.5zM365 68q63 0 143 34q55 25 135 72q203 125 275 178q158 117 233 228q96 141 96 309q0 16 -11 52t-19 67 l-84 -37q-90 -143 -228 -312q-104 -127 -272 -309q-115 -125 -268 -282z" />
<glyph unicode="&#xd9;" d="M150 401q0 197 75 347q92 182 271 210q-78 -152 -156 -301q-100 -207 -100 -307q0 -102 59 -198q68 -111 164 -111q121 0 272 172q137 156 235.5 363.5t98.5 330.5q0 23 -38 98.5t-38 108.5q0 29 18.5 35t57.5 6q64 -131 64 -268q0 -250 -220 -570q-238 -348 -475 -348 q-154 0 -229 148q-59 115 -59 284zM639 1775q0 31 17 41q12 0 31.5 -28.5t27.5 -45.5q43 -74 62.5 -166t19.5 -188q0 -137 -33 -262l-94 414q-31 154 -31 235z" />
<glyph unicode="&#xda;" d="M150 401q0 197 75 347q92 182 271 210q-78 -152 -156 -301q-100 -207 -100 -307q0 -102 59 -198q68 -111 164 -111q121 0 272 172q137 156 235.5 363.5t98.5 330.5q0 23 -38 98.5t-38 108.5q0 29 18.5 35t57.5 6q64 -131 64 -268q0 -250 -220 -570q-238 -348 -475 -348 q-154 0 -229 148q-59 115 -59 284zM757 1190q41 49 111 102q176 133 197.5 157.5t50 50.5t37.5 30q16 -4 38.5 -12.5t28.5 -8.5q21 0 23 25q-45 -129 -194.5 -236.5t-291.5 -107.5z" />
<glyph unicode="&#xdb;" d="M150 401q0 197 75 347q92 182 271 210q-78 -152 -156 -301q-100 -207 -100 -307q0 -102 59 -198q68 -111 164 -111q121 0 272 172q137 156 235.5 363.5t98.5 330.5q0 23 -38 98.5t-38 108.5q0 29 18.5 35t57.5 6q64 -131 64 -268q0 -250 -220 -570q-238 -348 -475 -348 q-154 0 -229 148q-59 115 -59 284zM473 1212q41 113 150 260q127 172 227 205q23 -37 97.5 -220t80.5 -214h-29q-90 0 -139 121q-12 29 -49 186q-66 -37 -164 -178q-90 -131 -174 -160z" />
<glyph unicode="&#xdc;" d="M150 401q0 197 75 347q92 182 271 210q-78 -152 -156 -301q-100 -207 -100 -307q0 -102 59 -198q68 -111 164 -111q121 0 272 172q137 156 235.5 363.5t98.5 330.5q0 23 -38 98.5t-38 108.5q0 29 18.5 35t57.5 6q64 -131 64 -268q0 -250 -220 -570q-238 -348 -475 -348 q-154 0 -229 148q-59 115 -59 284zM432 1247q33 88 55 125q45 70 107 70q25 0 56.5 -10.5t80.5 -39.5q-80 -82 -108 -102q-66 -47 -142 -47zM817 1239q33 88 55 125q45 70 107 69q25 0 56.5 -10t80.5 -39q-80 -82 -108 -102q-66 -47 -142 -47z" />
<glyph unicode="&#xdd;" d="M-29 -385q0 158 203 424q14 18 379 444q205 240 205 328q0 51 -119 225q-111 162 -168 215q-4 33 12 62q47 14 88 14q31 -115 142 -285q53 -80 106 -159q76 74 176 211q127 170 168 219q104 121 205 184q6 -18 15.5 -44t9.5 -28q0 -111 -326 -477q-614 -692 -618 -698 q-340 -418 -363 -629q-49 -45 -109 -61zM868 1579q41 49 111 102q176 133 197.5 157.5t50 50.5t37.5 30q16 -4 38.5 -12.5t28.5 -8.5q21 0 23 25q-45 -129 -194.5 -236.5t-291.5 -107.5z" />
<glyph unicode="&#xde;" horiz-adv-x="1267" d="M-12 440v25l10 8zM-2 473q70 217 329 387t494 170l33 82q41 106 72 160q55 96 118 127q0 -66 -36 -166q-29 -76 -90 -203q166 -16 280 -96q135 -94 135 -246q0 -145 -231 -242q-193 -80 -383 -79q-8 0 -35 12t-33 14q-29 43 -41 86q-84 -147 -139 -227 q-88 -129 -172 -213q-102 -100 -201 -135q164 209 250 329q143 199 238 351q113 182 200 370q-215 -37 -426 -176q-160 -106 -362 -305zM635 453l27 -25l24 -6q197 0 365 61q215 78 215 217q0 121 -94.5 194t-221.5 73l-67 -2q-76 -141 -150 -283q-80 -154 -98 -229z" />
<glyph unicode="&#xdf;" horiz-adv-x="1294" d="M178 -283q0 188 55 445q45 211 119 428q61 184 115 293q76 207 151 413q104 209 377 252l133 21q41 6 66 -23.5t25 -70.5q0 -88 -183 -265q-109 -100 -141 -131q156 -63 184 -80q142 -78 142 -260q0 -231 -267 -458q-258 -219 -546 -258q283 100 499 319q225 229 226 438 q0 176 -183 176q-43 0 -107.5 -10t-97.5 -14l-2 35q0 76 76 170q76 82 154 163q96 102 121 173q-18 2 -35 5t-39 3q-143 0 -215 -105q-145 -207 -279 -524q-117 -279 -211 -594q-78 -262 -137 -541z" />
<glyph unicode="&#xe0;" horiz-adv-x="1019" d="M121 74q0 68 60.5 117t238.5 266q223 274 303 360q164 180 223 180q29 0 39 -27.5t10 -62.5t-20 -71q-10 -20 -43 -62q-74 -96 -123 -194q-39 -76 -90 -213q23 -2 44 -3.5t44 -1.5h33q12 0 29.5 2.5t25.5 2.5q-201 -131 -221 -150q-92 -80 -127 -362h98l27 24 q0 -61 -47 -100q-33 -27 -103 -47q-8 23 -18 59q-16 57 -17 107q0 53 11 102q4 25 49 170q-39 14 -58 18q-35 10 -61 11q-72 0 -158 -80q-94 -88 -147 -96zM422 293q27 -6 49 -4q115 0 178 123q51 98 51 223l-4 51zM823 1749q0 31 17 41q12 0 31.5 -28.5t27.5 -45.5 q43 -74 62.5 -166t19.5 -188q0 -137 -33 -262l-94 414q-31 154 -31 235z" />
<glyph unicode="&#xe1;" horiz-adv-x="1019" d="M121 74q0 68 60.5 117t238.5 266q223 274 303 360q164 180 223 180q29 0 39 -27.5t10 -62.5t-20 -71q-10 -20 -43 -62q-74 -96 -123 -194q-39 -76 -90 -213q23 -2 44 -3.5t44 -1.5h33q12 0 29.5 2.5t25.5 2.5q-201 -131 -221 -150q-92 -80 -127 -362h98l27 24 q0 -61 -47 -100q-33 -27 -103 -47q-8 23 -18 59q-16 57 -17 107q0 53 11 102q4 25 49 170q-39 14 -58 18q-35 10 -61 11q-72 0 -158 -80q-94 -88 -147 -96zM422 293q27 -6 49 -4q115 0 178 123q51 98 51 223l-4 51zM940 1112q41 49 111 102q176 133 197.5 157.5t50 50.5 t37.5 30q16 -4 38.5 -12.5t28.5 -8.5q21 0 23 25q-45 -129 -194.5 -236.5t-291.5 -107.5z" />
<glyph unicode="&#xe2;" horiz-adv-x="1019" d="M121 74q0 68 60.5 117t238.5 266q223 274 303 360q164 180 223 180q29 0 39 -27.5t10 -62.5t-20 -71q-10 -20 -43 -62q-74 -96 -123 -194q-39 -76 -90 -213q23 -2 44 -3.5t44 -1.5h33q12 0 29.5 2.5t25.5 2.5q-201 -131 -221 -150q-92 -80 -127 -362h98l27 24 q0 -61 -47 -100q-33 -27 -103 -47q-8 23 -18 59q-16 57 -17 107q0 53 11 102q4 25 49 170q-39 14 -58 18q-35 10 -61 11q-72 0 -158 -80q-94 -88 -147 -96zM422 293q27 -6 49 -4q115 0 178 123q51 98 51 223l-4 51zM655 1012q41 113 150 260q127 172 227 205 q23 -37 97.5 -220t80.5 -214h-29q-90 0 -139 121q-12 29 -49 186q-66 -37 -164 -178q-90 -131 -174 -160z" />
<glyph unicode="&#xe3;" horiz-adv-x="1019" d="M121 74q0 68 60.5 117t238.5 266q223 274 303 360q164 180 223 180q29 0 39 -27.5t10 -62.5t-20 -71q-10 -20 -43 -62q-74 -96 -123 -194q-39 -76 -90 -213q23 -2 44 -3.5t44 -1.5h33q12 0 29.5 2.5t25.5 2.5q-201 -131 -221 -150q-92 -80 -127 -362h98l27 24 q0 -61 -47 -100q-33 -27 -103 -47q-8 23 -18 59q-16 57 -17 107q0 53 11 102q4 25 49 170q-39 14 -58 18q-35 10 -61 11q-72 0 -158 -80q-94 -88 -147 -96zM422 293q27 -6 49 -4q115 0 178 123q51 98 51 223l-4 51zM489 1119q94 76 127 98q98 70 144 69q14 0 96 -63t176 -63 q37 0 110.5 8t112.5 8q43 0 69 -8t44 -35q-96 -20 -171 -32.5t-149 -12.5q-86 0 -176 26q-86 31 -170 62q-29 0 -123 -37q-51 -20 -90 -20z" />
<glyph unicode="&#xe4;" horiz-adv-x="1019" d="M121 74q0 68 60.5 117t238.5 266q223 274 303 360q164 180 223 180q29 0 39 -27.5t10 -62.5t-20 -71q-10 -20 -43 -62q-74 -96 -123 -194q-39 -76 -90 -213q23 -2 44 -3.5t44 -1.5h33q12 0 29.5 2.5t25.5 2.5q-201 -131 -221 -150q-92 -80 -127 -362h98l27 24 q0 -61 -47 -100q-33 -27 -103 -47q-8 23 -18 59q-16 57 -17 107q0 53 11 102q4 25 49 170q-39 14 -58 18q-35 10 -61 11q-72 0 -158 -80q-94 -88 -147 -96zM422 293q27 -6 49 -4q115 0 178 123q51 98 51 223l-4 51zM684 1096q33 88 55 125q45 70 107 70q25 0 56.5 -10.5 t80.5 -39.5q-80 -82 -108 -102q-66 -47 -142 -47zM1069 1088q33 88 55 125q45 70 107 69q25 0 56.5 -10t80.5 -39q-80 -82 -108 -102q-66 -47 -142 -47z" />
<glyph unicode="&#xe5;" horiz-adv-x="1019" d="M121 74q0 68 60.5 117t238.5 266q223 274 303 360q164 180 223 180q29 0 39 -27.5t10 -62.5t-20 -71q-10 -20 -43 -62q-74 -96 -123 -194q-39 -76 -90 -213q23 -2 44 -3.5t44 -1.5h33q12 0 29.5 2.5t25.5 2.5q-201 -131 -221 -150q-92 -80 -127 -362h98l27 24 q0 -61 -47 -100q-33 -27 -103 -47q-8 23 -18 59q-16 57 -17 107q0 53 11 102q4 25 49 170q-39 14 -58 18q-35 10 -61 11q-72 0 -158 -80q-94 -88 -147 -96zM422 293q27 -6 49 -4q115 0 178 123q51 98 51 223l-4 51zM918 1216q0 80 96 166t176 86q37 0 49 -30.5t12 -73.5 q0 -84 -73.5 -179.5t-155.5 -95.5q-43 0 -73.5 41t-30.5 86zM959 1214q0 -37 13 -60.5t48 -23.5q57 0 120.5 62t63.5 119q0 29 -16 59q-25 39 -33 55q-68 -27 -127 -82q-70 -66 -69 -129z" />
<glyph unicode="&#xe6;" horiz-adv-x="1863" d="M121 74q0 68 60.5 117t238.5 266q223 274 303 360q164 180 223 180q29 0 39 -27.5t10 -62.5t-20 -71q-10 -20 -43 -62q-66 -86 -109 -166q-33 -61 -80 -176q174 127 297 191q172 88 308 88q104 0 184 -43q-150 -49 -297 -99q-166 -63 -274 -149q68 -16 148.5 -21.5 t180.5 -5.5q68 0 225.5 11.5t204.5 11.5q31 0 59.5 -4.5t53.5 -16.5q-113 -53 -258 -69q-88 -10 -270 -11q-209 0 -317.5 -9t-227.5 -58q88 -119 248 -174q133 -45 309 -45q55 0 229 20q88 10 140 10l-3 -8q-80 -33 -227 -65.5t-235 -32.5q-190 0 -355 82q-72 35 -227 147 q-61 -74 -92 -327h98l27 24q0 -61 -47 -100q-33 -27 -103 -47q-8 23 -18 59q-16 57 -17 107q0 53 11 102q4 25 49 170q-39 14 -58 18q-35 10 -61 11q-72 0 -158 -80q-94 -88 -147 -96zM422 293q27 -6 49 -4q115 0 178 123q51 98 51 223l-4 51z" />
<glyph unicode="&#xe7;" d="M-160 -274q8 0 60 -21q31 -12 61 -12q31 0 90 67q8 10 90 111q29 43 44.5 64.5t35.5 39.5q-47 8 -74 25q-35 23 -34 66q0 35 20.5 84t38.5 94q92 246 244 436q201 252 405 252q84 0 123 -50.5t39 -133.5q0 -158 -88 -281q-6 41 -6 82q0 23 2 68t2 67q0 74 -8 107 q-16 70 -70 69q-164 0 -380 -295t-216 -467l2 -51q141 0 311 39q59 14 306 84q188 54 307 74q-80 -61 -392.5 -158.5t-451.5 -110.5q-45 -104 -160.5 -219.5t-171.5 -115.5q-29 0 -69 32q-29 27 -60 54z" />
<glyph unicode="&#xe8;" horiz-adv-x="1443" d="M98 268q35 23 262 189q174 127 293 188q168 86 305 86q104 0 185 -43q-150 -49 -297 -98q-166 -63 -275 -150q68 -16 149 -21t181 -5q68 0 225.5 11t204.5 11q31 0 59.5 -4t53.5 -16q-113 -53 -258 -70q-88 -10 -271 -10q-209 0 -317.5 -9.5t-226.5 -58.5 q88 -119 247 -174q133 -45 310 -45q55 0 229 21q88 10 139 10l-2 -8q-80 -33 -227 -66t-236 -33q-186 0 -344 76q-76 37 -223 141q-109 78 -166 78zM764 1526q0 31 17 41q12 0 31.5 -28.5t27.5 -45.5q43 -74 62.5 -166t19.5 -188q0 -137 -33 -262l-94 414q-31 154 -31 235z " />
<glyph unicode="&#xe9;" horiz-adv-x="1443" d="M98 268q35 23 262 189q174 127 293 188q168 86 305 86q104 0 185 -43q-150 -49 -297 -98q-166 -63 -275 -150q68 -16 149 -21t181 -5q68 0 225.5 11t204.5 11q31 0 59.5 -4t53.5 -16q-113 -53 -258 -70q-88 -10 -271 -10q-209 0 -317.5 -9.5t-226.5 -58.5 q88 -119 247 -174q133 -45 310 -45q55 0 229 21q88 10 139 10l-2 -8q-80 -33 -227 -66t-236 -33q-186 0 -344 76q-76 37 -223 141q-109 78 -166 78zM848 856q41 49 111 102q176 133 197.5 157.5t50 50.5t37.5 30q16 -4 38.5 -12.5t28.5 -8.5q21 0 23 25 q-45 -129 -194.5 -236.5t-291.5 -107.5z" />
<glyph unicode="&#xea;" horiz-adv-x="1443" d="M98 268q35 23 262 189q174 127 293 188q168 86 305 86q104 0 185 -43q-150 -49 -297 -98q-166 -63 -275 -150q68 -16 149 -21t181 -5q68 0 225.5 11t204.5 11q31 0 59.5 -4t53.5 -16q-113 -53 -258 -70q-88 -10 -271 -10q-209 0 -317.5 -9.5t-226.5 -58.5 q88 -119 247 -174q133 -45 310 -45q55 0 229 21q88 10 139 10l-2 -8q-80 -33 -227 -66t-236 -33q-186 0 -344 76q-76 37 -223 141q-109 78 -166 78zM645 793q41 113 150 260q127 172 227 205q23 -37 97.5 -220t80.5 -214h-29q-90 0 -139 121q-12 29 -49 186 q-66 -37 -164 -178q-90 -131 -174 -160z" />
<glyph unicode="&#xeb;" horiz-adv-x="1443" d="M98 268q35 23 262 189q174 127 293 188q168 86 305 86q104 0 185 -43q-150 -49 -297 -98q-166 -63 -275 -150q68 -16 149 -21t181 -5q68 0 225.5 11t204.5 11q31 0 59.5 -4t53.5 -16q-113 -53 -258 -70q-88 -10 -271 -10q-209 0 -317.5 -9.5t-226.5 -58.5 q88 -119 247 -174q133 -45 310 -45q55 0 229 21q88 10 139 10l-2 -8q-80 -33 -227 -66t-236 -33q-186 0 -344 76q-76 37 -223 141q-109 78 -166 78zM627 864q33 88 55 125q45 70 107 70q25 0 56.5 -10.5t80.5 -39.5q-80 -82 -108 -102q-66 -47 -142 -47zM1012 856 q33 88 55 125q45 70 107 69q25 0 56.5 -10t80.5 -39q-80 -82 -108 -102q-66 -47 -142 -47z" />
<glyph unicode="&#xec;" horiz-adv-x="546" d="M160 156q0 176 102 352q119 203 285 203q-168 -133 -250 -340q-74 -186 -74 -418q-35 37 -49 88t-14 115zM352 1519q0 31 17 41q12 0 31.5 -28.5t27.5 -45.5q43 -74 62.5 -166t19.5 -188q0 -137 -33 -262l-94 414q-31 154 -31 235z" />
<glyph unicode="&#xed;" horiz-adv-x="546" d="M160 156q0 176 102 352q119 203 285 203q-168 -133 -250 -340q-74 -186 -74 -418q-35 37 -49 88t-14 115zM467 877q41 49 111 102q176 133 197.5 157.5t50 50.5t37.5 30q16 -4 38.5 -12.5t28.5 -8.5q21 0 23 25q-45 -129 -194.5 -236.5t-291.5 -107.5z" />
<glyph unicode="&#xee;" horiz-adv-x="546" d="M160 156q0 176 102 352q119 203 285 203q-168 -133 -250 -340q-74 -186 -74 -418q-35 37 -49 88t-14 115zM203 786q41 113 150 260q127 172 227 205q23 -37 97.5 -220t80.5 -214h-29q-90 0 -139 121q-12 29 -49 186q-66 -37 -164 -178q-90 -131 -174 -160z" />
<glyph unicode="&#xef;" horiz-adv-x="546" d="M160 156q0 176 102 352q119 203 285 203q-168 -133 -250 -340q-74 -186 -74 -418q-35 37 -49 88t-14 115zM192 852q33 88 55 125q45 70 107 70q25 0 56.5 -10.5t80.5 -39.5q-80 -82 -108 -102q-66 -47 -142 -47zM577 844q33 88 55 125q45 70 107 69q25 0 56.5 -10 t80.5 -39q-80 -82 -108 -102q-66 -47 -142 -47z" />
<glyph unicode="&#xf0;" horiz-adv-x="919" d="M53 903q33 27 130.5 78t207.5 102q-35 84 -56.5 168t-21.5 162q0 23 3 49.5t12 57.5q63 -16 92 -40t55 -83q-25 18 -51.5 40.5t-46.5 32.5q0 -86 21.5 -176t60.5 -180q156 72 223 88q27 6 51.5 10.5t50.5 4.5q57 0 101 -23q-121 -43 -202 -73.5t-194 -76.5 q37 -76 259 -423q145 -230 145 -345t-88 -198.5t-205 -83.5q-145 0 -309 141t-164 283q0 92 115 114q43 8 112 9q33 0 110 -4.5t83 -4.5h63q29 6 41 9q-33 92 -106 233q-106 207 -125 244l-121 -49l-168 -82q-10 -4 -31 -4q-31 0 -47 20zM205 420q49 -119 153 -227 q125 -129 234 -130q74 0 127 51.5t53 123.5q0 121 -121 172q-84 35 -227 34q-111 0 -219 -24z" />
<glyph unicode="&#xf1;" horiz-adv-x="995" d="M98 72q0 137 181 364q113 143 145 201l22 -123q199 84 211 88q145 55 215 55q68 0 95.5 -36.5t27.5 -106.5q0 -102 -71 -272q-31 -72 -129 -267q-12 25 -18.5 58t-6.5 63q0 74 33 172q76 227 76 291l-9 29q-137 -16 -283.5 -88t-248.5 -168q-43 -39 -78 -97.5t-67 -111.5 q-12 -18 -39 -30.5t-56 -20.5zM293 840q94 76 127 98q98 70 144 69q14 0 96 -63t176 -63q37 0 110.5 8t112.5 8q43 0 69 -8t44 -35q-96 -20 -171 -32.5t-149 -12.5q-86 0 -176 26q-86 31 -170 62q-29 0 -123 -37q-51 -20 -90 -20z" />
<glyph unicode="&#xf2;" horiz-adv-x="845" d="M133 262q0 168 210 355.5t380 187.5q78 0 111 -80q22 -55 22 -145q0 -184 -154 -381q-164 -211 -342 -211q-94 0 -160.5 89t-66.5 185zM221 254q0 -74 32 -126t103 -52q121 0 259.5 134t138.5 255q0 68 -54 160q-27 43 -53 88q-152 -61 -276 -181q-150 -141 -150 -278z M536 1591q0 31 17 41q12 0 31.5 -28.5t27.5 -45.5q43 -74 62.5 -166t19.5 -188q0 -137 -33 -262l-94 414q-31 154 -31 235z" />
<glyph unicode="&#xf3;" horiz-adv-x="845" d="M133 262q0 168 210 355.5t380 187.5q78 0 111 -80q22 -55 22 -145q0 -184 -154 -381q-164 -211 -342 -211q-94 0 -160.5 89t-66.5 185zM221 254q0 -74 32 -126t103 -52q121 0 259.5 134t138.5 255q0 68 -54 160q-27 43 -53 88q-152 -61 -276 -181q-150 -141 -150 -278z M655 948q41 49 111 102q176 133 197.5 157.5t50 50.5t37.5 30q16 -4 38.5 -12.5t28.5 -8.5q21 0 23 25q-45 -129 -194.5 -236.5t-291.5 -107.5z" />
<glyph unicode="&#xf4;" horiz-adv-x="845" d="M133 262q0 168 210 355.5t380 187.5q78 0 111 -80q22 -55 22 -145q0 -184 -154 -381q-164 -211 -342 -211q-94 0 -160.5 89t-66.5 185zM221 254q0 -74 32 -126t103 -52q121 0 259.5 134t138.5 255q0 68 -54 160q-27 43 -53 88q-152 -61 -276 -181q-150 -141 -150 -278z M381 838q41 113 150 260q127 172 227 205q23 -37 97.5 -220t80.5 -214h-29q-90 0 -139 121q-12 29 -49 186q-66 -37 -164 -178q-90 -131 -174 -160z" />
<glyph unicode="&#xf5;" horiz-adv-x="845" d="M133 262q0 168 210 355.5t380 187.5q78 0 111 -80q22 -55 22 -145q0 -184 -154 -381q-164 -211 -342 -211q-94 0 -160.5 89t-66.5 185zM221 254q0 -74 32 -126t103 -52q121 0 259.5 134t138.5 255q0 68 -54 160q-27 43 -53 88q-152 -61 -276 -181q-150 -141 -150 -278z M246 943q94 76 127 98q98 70 144 69q14 0 96 -63t176 -63q37 0 110.5 8t112.5 8q43 0 69 -8t44 -35q-96 -20 -171 -32.5t-149 -12.5q-86 0 -176 26q-86 31 -170 62q-29 0 -123 -37q-51 -20 -90 -20z" />
<glyph unicode="&#xf6;" horiz-adv-x="845" d="M133 262q0 168 210 355.5t380 187.5q78 0 111 -80q22 -55 22 -145q0 -184 -154 -381q-164 -211 -342 -211q-94 0 -160.5 89t-66.5 185zM221 254q0 -74 32 -126t103 -52q121 0 259.5 134t138.5 255q0 68 -54 160q-27 43 -53 88q-152 -61 -276 -181q-150 -141 -150 -278z M412 924q33 88 55 125q45 70 107 70q25 0 56.5 -10.5t80.5 -39.5q-80 -82 -108 -102q-66 -47 -142 -47zM797 916q33 88 55 125q45 70 107 69q25 0 56.5 -10t80.5 -39q-80 -82 -108 -102q-66 -47 -142 -47z" />
<glyph unicode="&#xf7;" horiz-adv-x="1865" d="M0 563q145 59 436 104.5t479 45.5q117 0 211 -26t168 -89q-92 -10 -148 -12t-130 -2q-39 0 -89 1t-112 3q-100 0 -155.5 -5t-163.5 -20q-180 -33 -359 -65q-47 0 -82 14t-55 51zM463 229q33 88 55 125q45 70 107 70q25 0 56.5 -10t80.5 -39q-80 -82 -109 -103 q-66 -47 -141 -47zM473 834q33 88 55 124q45 70 107 70q25 0 56.5 -10t80.5 -39q-80 -82 -108 -102q-66 -47 -142 -48z" />
<glyph unicode="&#xf8;" horiz-adv-x="845" d="M-10 -102q6 43 39 88q25 35 69 77l70 64q-35 66 -35 135q0 168 210 355.5t380 187.5q35 0 57 -14l29 36q29 37 47 56q33 33 66 49q0 -88 -84 -215q10 -29 14 -68t4 -69q0 -184 -154 -381q-164 -211 -342 -211q-47 0 -89 23.5t-72 66.5zM221 254q0 -41 8 -74 q102 86 207 172q109 96 174 185l74 110l-37 66q-152 -61 -276 -181q-150 -141 -150 -278zM254 125q16 -23 42 -36t60 -13q121 0 259.5 134t138.5 255q0 27 -7.5 53.5t-21.5 54.5q-66 -76 -166 -172q-111 -106 -305 -276z" />
<glyph unicode="&#xf9;" horiz-adv-x="919" d="M104 229q0 150 80 316q88 182 213 239q-4 -43 -141 -346q-57 -127 -57 -243q0 -61 22.5 -95t81.5 -34q66 0 143 45q53 31 123 94q174 156 240 422q33 129 86 182q23 -45 23 -94q0 -66 -64 -191q-29 -55 -57 -108q-88 -176 -197 -279q-143 -137 -309 -137 q-94 0 -140.5 65.5t-46.5 163.5zM454 1550q0 31 17 41q12 0 31.5 -28.5t27.5 -45.5q43 -74 62.5 -166t19.5 -188q0 -137 -33 -262l-94 414q-31 154 -31 235z" />
<glyph unicode="&#xfa;" horiz-adv-x="919" d="M104 229q0 150 80 316q88 182 213 239q-4 -43 -141 -346q-57 -127 -57 -243q0 -61 22.5 -95t81.5 -34q66 0 143 45q53 31 123 94q174 156 240 422q33 129 86 182q23 -45 23 -94q0 -66 -64 -191q-29 -55 -57 -108q-88 -176 -197 -279q-143 -137 -309 -137 q-94 0 -140.5 65.5t-46.5 163.5zM528 928q41 49 111 102q176 133 197.5 157.5t50 50.5t37.5 30q16 -4 38.5 -12.5t28.5 -8.5q21 0 23 25q-45 -129 -194.5 -236.5t-291.5 -107.5z" />
<glyph unicode="&#xfb;" horiz-adv-x="919" d="M104 229q0 150 80 316q88 182 213 239q-4 -43 -141 -346q-57 -127 -57 -243q0 -61 22.5 -95t81.5 -34q66 0 143 45q53 31 123 94q174 156 240 422q33 129 86 182q23 -45 23 -94q0 -66 -64 -191q-29 -55 -57 -108q-88 -176 -197 -279q-143 -137 -309 -137 q-94 0 -140.5 65.5t-46.5 163.5zM366 899q41 113 150 260q127 172 227 205q23 -37 97.5 -220t80.5 -214h-29q-90 0 -139 121q-12 29 -49 186q-66 -37 -164 -178q-90 -131 -174 -160z" />
<glyph unicode="&#xfc;" horiz-adv-x="919" d="M104 229q0 150 80 316q88 182 213 239q-4 -43 -141 -346q-57 -127 -57 -243q0 -61 22.5 -95t81.5 -34q66 0 143 45q53 31 123 94q174 156 240 422q33 129 86 182q23 -45 23 -94q0 -66 -64 -191q-29 -55 -57 -108q-88 -176 -197 -279q-143 -137 -309 -137 q-94 0 -140.5 65.5t-46.5 163.5zM407 924q33 88 55 125q45 70 107 70q25 0 56.5 -10.5t80.5 -39.5q-80 -82 -108 -102q-66 -47 -142 -47zM792 916q33 88 55 125q45 70 107 69q25 0 56.5 -10t80.5 -39q-80 -82 -108 -102q-66 -47 -142 -47z" />
<glyph unicode="&#xfd;" horiz-adv-x="1069" d="M-147 -981q20 84 163.5 283.5t286.5 392.5q170 231 217 328q-123 43 -258 165q-154 139 -153 250q0 41 24.5 73t65.5 54q0 -139 82 -286q94 -170 223 -170q137 0 233 165q78 160 156 322q98 186 225 213q-59 -143 -333.5 -564t-534.5 -769q-297 -399 -397 -457zM501 836 q41 49 111 102q176 133 197.5 157.5t50 50.5t37.5 30q16 -4 38.5 -12.5t28.5 -8.5q21 0 23 25q-45 -129 -194.5 -236.5t-291.5 -107.5z" />
<glyph unicode="&#xfe;" d="M-59 -537q0 76 98 344q82 221 207 515q115 266 176 380q141 270 283 541q172 313 237 313q0 -84 -84 -282q-61 -145 -158 -334q-82 -162 -86 -162q72 45 142.5 62.5t138.5 17.5q115 0 176.5 -53t61.5 -164q0 -162 -136 -389q-150 -250 -299 -250q-90 0 -133 115 q-31 82 -30 190q0 33 2 57.5t10 51.5q27 -182 33 -207q37 -143 108 -143q104 0 248 223q135 211 135 323q0 84 -51 122t-139 38q-276 0 -439 -315q-51 -100 -221 -631q-121 -379 -268 -463q-12 49 -12 100z" />
<glyph unicode="&#xff;" horiz-adv-x="1069" d="M-147 -981q20 84 163.5 283.5t286.5 392.5q170 231 217 328q-123 43 -258 165q-154 139 -153 250q0 41 24.5 73t65.5 54q0 -139 82 -286q94 -170 223 -170q137 0 233 165q78 160 156 322q98 186 225 213q-59 -143 -333.5 -564t-534.5 -769q-297 -399 -397 -457zM319 903 q33 88 55 125q45 70 107 70q25 0 56.5 -10.5t80.5 -39.5q-80 -82 -108 -102q-66 -47 -142 -47zM704 895q33 88 55 125q45 70 107 69q25 0 56.5 -10t80.5 -39q-80 -82 -108 -102q-66 -47 -142 -47z" />
<glyph unicode="&#x152;" horiz-adv-x="2181" d="M82 201q0 164 159.5 413.5t374.5 432.5q233 199 404 198q115 0 170 -94q45 -78 45 -201q0 -68 -12 -143q-4 -25 -13 -64q61 70 97 117q111 145 161 268q33 -10 52.5 -14t42.5 -4q27 0 450 80q207 39 326 39q-225 -55 -449.5 -108.5t-351.5 -139.5q-164 -111 -295 -342 q29 -6 56.5 -10t56.5 -4q74 0 288 44t222 42q-92 -35 -190.5 -70t-182.5 -53q-119 -27 -236 -51q-248 -72 -247 -269q0 -109 98 -164q84 -47 203 -47q176 0 362 158q123 104 195 141q-18 -125 -230 -250q-197 -117 -333 -116q-170 0 -269 45q-158 72 -157 254 q-90 -76 -198 -137.5t-226 -110.5q-59 -25 -108.5 -40t-96.5 -15q-88 0 -128 60t-40 155zM166 182q0 -115 106 -114q70 0 150 32q55 23 139 74q203 125 275 178q158 117 233 228q96 141 96 309l-6 69q-66 -72 -80 -84q-45 -43 -94 -65q10 39 41 80q12 16 61 67 q-35 10 -62.5 27.5t-37.5 24.5q43 74 72 145q-27 8 -62 8q-145 0 -350 -186q-190 -172 -335.5 -408.5t-145.5 -384.5z" />
<glyph unicode="&#x153;" horiz-adv-x="1720" d="M51 262q0 168 210 355.5t380 187.5q78 0 111 -80q23 -55 22 -145q0 -16 -12 -50q-4 -10 -14 -32q100 100 272 166.5t295 66.5q104 0 184 -43q-150 -49 -297 -98q-166 -63 -274 -150q68 -16 148.5 -21t180.5 -5q68 0 225.5 11t205.5 11q31 0 59 -4t53 -16 q-113 -53 -258 -70q-88 -10 -270 -10q-209 0 -317.5 -9.5t-227.5 -58.5q88 -119 248 -174q133 -45 309 -45q55 0 229 21q88 10 140 10l-2 -8q-80 -33 -227.5 -66t-235.5 -33q-272 0 -395 76q-74 45 -123 154q-68 -109 -171.5 -162t-219.5 -53q-94 0 -161 89t-67 185z M139 254q0 -74 32 -126t103 -52q121 0 259.5 134t138.5 255q0 68 -54 160q-27 43 -53 88q-152 -61 -276 -181q-150 -141 -150 -278z" />
<glyph unicode="&#x178;" d="M-29 -385q0 158 203 424q14 18 379 444q205 240 205 328q0 51 -119 225q-111 162 -168 215q-4 33 12 62q47 14 88 14q31 -115 142 -285q53 -80 106 -159q76 74 176 211q127 170 168 219q104 121 205 184q6 -18 15.5 -44t9.5 -28q0 -111 -326 -477q-614 -692 -618 -698 q-340 -418 -363 -629q-49 -45 -109 -61zM651 1579q33 88 55 125q45 70 107 70q25 0 56.5 -10.5t80.5 -39.5q-80 -82 -108 -102q-66 -47 -142 -47zM1036 1571q33 88 55 125q45 70 107 69q25 0 56.5 -10t80.5 -39q-80 -82 -108 -102q-66 -47 -142 -47z" />
<glyph unicode="&#x2c6;" horiz-adv-x="1122" d="M262 1155q41 113 150 260q127 172 227 205q23 -37 97.5 -220t80.5 -214h-29q-90 0 -139 121q-12 29 -49 186q-66 -37 -164 -178q-90 -131 -174 -160z" />
<glyph unicode="&#x2dc;" horiz-adv-x="1343" d="M178 1475q94 76 127 98q98 70 144 69q14 0 96 -63t176 -63q37 0 110.5 8t112.5 8q43 0 69 -8t44 -35q-96 -20 -171 -32.5t-149 -12.5q-86 0 -176 26q-86 31 -170 62q-29 0 -123 -37q-51 -20 -90 -20z" />
<glyph unicode="&#x2000;" horiz-adv-x="1135" />
<glyph unicode="&#x2001;" horiz-adv-x="2271" />
<glyph unicode="&#x2002;" horiz-adv-x="1135" />
<glyph unicode="&#x2003;" horiz-adv-x="2271" />
<glyph unicode="&#x2004;" horiz-adv-x="757" />
<glyph unicode="&#x2005;" horiz-adv-x="567" />
<glyph unicode="&#x2006;" horiz-adv-x="378" />
<glyph unicode="&#x2007;" horiz-adv-x="378" />
<glyph unicode="&#x2008;" horiz-adv-x="283" />
<glyph unicode="&#x2009;" horiz-adv-x="454" />
<glyph unicode="&#x200a;" horiz-adv-x="126" />
<glyph unicode="&#x2010;" horiz-adv-x="1865" d="M147 565q96 41 370 95.5t567.5 97.5t402.5 43q117 0 211 -26t168 -89q-203 -18 -406 -35q-283 -25 -431 -41t-384 -47q-180 -33 -358 -63q-49 0 -85 14t-55 51z" />
<glyph unicode="&#x2011;" horiz-adv-x="1865" d="M147 565q96 41 370 95.5t567.5 97.5t402.5 43q117 0 211 -26t168 -89q-203 -18 -406 -35q-283 -25 -431 -41t-384 -47q-180 -33 -358 -63q-49 0 -85 14t-55 51z" />
<glyph unicode="&#x2012;" horiz-adv-x="1865" d="M147 565q96 41 370 95.5t567.5 97.5t402.5 43q117 0 211 -26t168 -89q-203 -18 -406 -35q-283 -25 -431 -41t-384 -47q-180 -33 -358 -63q-49 0 -85 14t-55 51z" />
<glyph unicode="&#x2013;" horiz-adv-x="1353" d="M0 563q145 59 436 104.5t479 45.5q117 0 211 -26t168 -89q-92 -10 -148 -12t-130 -2q-39 0 -89 1t-112 3q-100 0 -155.5 -5t-163.5 -20q-180 -33 -359 -65q-47 0 -82 14t-55 51z" />
<glyph unicode="&#x2014;" horiz-adv-x="1716" d="M-2 565q98 41 369.5 95.5t565.5 97.5t404 43q117 0 211 -26t168 -89q-203 -18 -405 -35q-283 -25 -431.5 -41t-383.5 -47q-180 -33 -359 -65q-49 0 -83 14t-56 53z" />
<glyph unicode="&#x2018;" horiz-adv-x="595" d="M12 1485q0 51 43 119q20 33 43 67q16 -2 36 -10l40 -16q-10 -57 -18 -115q0 -35 53 -74q41 -31 84 -61q16 -14 30.5 -36t22.5 -32q-135 0 -205 21q-129 37 -129 137z" />
<glyph unicode="&#x2019;" horiz-adv-x="522" d="M367 1454q0 72 13 138.5t42 127.5q8 -12 44 -28.5t56 -20.5q-47 -172 -67 -215q-33 -68 -82 -106z" />
<glyph unicode="&#x201a;" horiz-adv-x="393" d="M121 -270q12 74 65 190q61 135 71.5 180t20 78t17.5 43q33 6 56.5 10.5t23.5 24.5q0 2 -4 14q6 -31 6 -67q0 -139 -70 -275q-76 -147 -186 -198z" />
<glyph unicode="&#x201c;" horiz-adv-x="696" d="M12 1200q0 88 35 191q25 70 76 180q16 -29 23.5 -62.5t7.5 -74.5q0 -88 -31 -183q-37 -115 -98 -147q-12 47 -13 96zM348 1128q0 53 12.5 160t12.5 160l-2 86q0 33 3 60.5t19 27.5q27 0 47 -37q31 -55 31 -112q0 -82 -36 -183.5t-87 -161.5z" />
<glyph unicode="&#x201d;" horiz-adv-x="770" d="M223 1128q29 115 86 238q70 152 140 203l2 -31q0 -104 -69 -230t-159 -180zM422 1057q37 88 104 196q174 283 193 320q22 -29 22 -72q0 -104 -112 -250q-102 -131 -207 -194z" />
<glyph unicode="&#x201e;" horiz-adv-x="935" d="M141 -264q29 115 86 237q70 152 140 203l2 -31q0 -104 -69 -230t-159 -179zM340 -336q37 88 104 197q174 283 193 319q22 -28 22 -71q0 -104 -112 -250q-102 -131 -207 -195z" />
<glyph unicode="&#x2022;" horiz-adv-x="491" d="M6 633q53 147 88 203q72 113 174 112q51 0 115 -24q48 -19 109 -56q-129 -131 -179 -166q-106 -76 -227 -75z" />
<glyph unicode="&#x2026;" horiz-adv-x="1269" d="M84 -98q33 88 55 125q45 70 107 69q25 0 56.5 -10t80.5 -39q-80 -82 -109 -102q-66 -47 -141 -47zM545 -109q33 88 55 125q45 70 107 70q25 0 56.5 -10t80.5 -39q-80 -82 -109 -103q-66 -47 -141 -47zM975 -98q33 88 55 125q45 70 107 69q25 0 56.5 -10t80.5 -39 q-80 -82 -109 -102q-66 -47 -141 -47z" />
<glyph unicode="&#x202f;" horiz-adv-x="454" />
<glyph unicode="&#x2039;" horiz-adv-x="995" d="M168 606q0 68 156 176q57 39 116 78q16 12 236 266q96 111 235 201l74 -49q-72 -115 -197 -238q-27 -27 -229 -209q-145 -131 -221 -219q31 -27 135 -123q150 -137 240 -196q51 -31 75 -45q76 -45 115 -90q33 -37 54.5 -93.5t29.5 -111.5q-55 25 -255 175.5t-374 295.5 q-190 158 -190 182z" />
<glyph unicode="&#x203a;" horiz-adv-x="968" d="M147 170q147 145 213 211q174 174 275 297q137 166 137 227q0 86 -228.5 189.5t-228.5 160.5q0 18 7.5 35t23.5 35q41 -55 135 -98q260 -119 264 -121q86 -76 175 -150l6 -12q16 -12 26 -20l17 -17l2 -16q4 -25 -21 -45q-88 -72 -329 -320q-127 -129 -201 -191.5 t-127 -96.5q-72 -45 -146 -68z" />
<glyph unicode="&#x205f;" horiz-adv-x="567" />
<glyph unicode="&#x2122;" horiz-adv-x="1259" d="M20 1374q27 47 275 93t371 46q55 0 98 -9t80 -38q-39 8 -74 10.5t-84 2.5l-121 -2q-66 0 -106 -66q-70 -109 -203 -295q-168 -231 -213 -256q8 43 92 164q12 18 170 229q100 135 131 191q-111 0 -260 -33q-78 -18 -156 -37zM559 938q4 25 107.5 218.5t119.5 199.5 q23 -109 31 -135q33 -96 80 -97q51 0 149.5 161t124.5 157l11 -10q14 16 18 20q10 8 27 16h18q-164 -299 -192 -352q-109 -209 -156 -375q0 106 99.5 315.5t99.5 243.5q-92 -98 -105 -114q-61 -80 -55 -137l-35 6q-18 0 -33.5 -13.5t-29.5 -35.5q2 14 16 34q8 12 16 17v12 q-35 55 -51 83t-63 101q-37 -80 -90 -172q-78 -133 -107 -143z" />
<glyph unicode="&#x25fc;" horiz-adv-x="829" d="M0 0v829h829v-829h-829z" />
</font>
</defs>
</svg>
